<?xml version="1.0" encoding="utf-8"?>
<!-- Generator: Adobe Illustrator 21.0.0, SVG Export Plug-In . SVG Version: 6.00 Build 0)  -->
<svg version="1.1" id="图层_1" xmlns="http://www.w3.org/2000/svg" xmlns:xlink="http://www.w3.org/1999/xlink" x="0px" y="0px"
	 viewBox="0 0 180 50" style="enable-background:new 0 0 180 50;" xml:space="preserve">
<style type="text/css">
	.st0{fill:#FFFFFF;}
</style>
<g>
	<g>
		<g>
			<path class="st0" d="M53.4,43.3V7.5h5.1v35.8H53.4z"/>
			<path class="st0" d="M66.9,43.3v-31h-5.9V7.5h17v4.8H72v31H66.9z"/>
			<path class="st0" d="M80.2,43.3V7.5h7.6c2.9,0,5.2,0.8,6.7,2.4c1.5,1.6,2.3,3.9,2.3,6.8v16.7c0,3.4-0.8,5.8-2.4,7.4
				c-1.6,1.6-4,2.4-7,2.4H80.2z M85.3,12.3v26.1h2.4c1.4,0,2.5-0.4,3.1-1.1c0.6-0.7,0.9-1.9,0.9-3.4V16.8c0-1.4-0.3-2.5-0.9-3.3
				c-0.6-0.8-1.6-1.2-3.1-1.2H85.3z"/>
		</g>
	</g>
	<g>
		<g>
			<path class="st0" d="M112.1,17.1h2.6c0.3-0.4,0.5-0.9,0.7-1.3l1.2,0.4c-0.2,0.3-0.4,0.6-0.5,0.9h4.2v1.1c-0.4,1.1-1.1,2.1-2,3
				c0.6,0.3,1.3,0.6,1.9,0.9l-0.8,1.2c-0.7-0.4-1.4-0.8-2.2-1.2c-1.3,0.9-2.9,1.7-4.9,2.2c-0.2-0.4-0.4-0.8-0.6-1.2
				c1.7-0.4,3.1-0.9,4.2-1.6c-1-0.5-2-1-3.1-1.5c0.4-0.5,0.7-1.1,1.1-1.6h-2V17.1z M112.3,11.2h3.9V7.3h1.3v3.8h3.3v1.1h-3.3v1
				l0.5-0.6c1.1,0.8,2,1.5,2.7,2.1l-0.8,1c-0.6-0.6-1.4-1.3-2.4-2v2h-1.3v-2.4c-1,1.1-2.3,2-3.6,2.9c-0.2-0.3-0.5-0.7-0.7-1
				c1.4-0.8,2.8-1.7,4-2.8h-3.5V11.2z M112.7,8.5l1-0.7c0.5,0.6,1,1.3,1.6,2l-1.1,0.8C113.7,9.9,113.2,9.2,112.7,8.5z M114.7,19.4
				c0.8,0.4,1.6,0.7,2.5,1.1c0.8-0.7,1.4-1.5,1.9-2.4h-3.6C115.2,18.6,114.9,19,114.7,19.4z M120,7.8l1.1,0.7
				c-0.6,0.8-1.3,1.6-1.9,2.3c-0.3-0.2-0.6-0.5-0.9-0.7C118.9,9.3,119.5,8.6,120,7.8z M123.2,7.2l1.4,0.2c-0.2,1.1-0.5,2.1-0.8,3.1
				h5.3v1.2h-1.1c-0.3,3.4-1,6-2.2,8c0.9,1.3,2.1,2.3,3.5,3.1c-0.4,0.5-0.7,1-0.9,1.4c-1.4-0.9-2.6-2-3.5-3.2
				c-1.1,1.3-2.3,2.4-3.8,3.4c-0.3-0.3-0.6-0.7-1-1.1c1.6-1.1,2.9-2.2,3.9-3.6c-0.9-1.6-1.5-3.4-1.8-5.5c-0.2,0.4-0.5,0.8-0.8,1.2
				c-0.2-0.3-0.5-0.7-0.9-1.1C121.8,12.3,122.7,9.9,123.2,7.2z M126.5,11.7h-3.2c-0.1,0.1-0.1,0.3-0.2,0.4c0.2,2.4,0.8,4.5,1.7,6.2
				C125.7,16.6,126.3,14.4,126.5,11.7z"/>
			<path class="st0" d="M128.9,17.3h8v-1.1l3.4-2.1H132v-1.3h10.4v1.4l-4.1,2.6v0.5h7.5v1.3h-7.5v3.2c0,1.5-0.7,2.2-2.2,2.2
				c-0.6,0-1.4,0-2.6,0c0-0.4-0.1-0.9-0.2-1.5c0.9,0.1,1.7,0.2,2.4,0.2c0.8,0,1.1-0.4,1.1-1.2v-2.7h-8V17.3z M129.6,9.7h7.9
				c-0.4-0.6-0.9-1.3-1.5-2l1.1-0.8c0.7,0.8,1.3,1.5,1.8,2.2l-0.8,0.5h7.2v3.5h-1.4V11h-13v2.2h-1.4V9.7z"/>
			<path class="st0" d="M145.8,15.6c2-2.6,3.5-5.5,4.4-8.4l1.5,0.4c-0.5,1.4-1.1,2.8-1.8,4v12.3h-1.4v-9.7c-0.6,1-1.3,2-2,2.9
				C146.3,16.6,146.1,16.1,145.8,15.6z M150.6,17.7c1.5-0.7,2.9-1.5,4.2-2.4V7.5h1.5v6.8c1.8-1.4,3.3-3,4.7-4.9l1.3,0.9
				c-1.7,2.2-3.6,4.1-5.9,5.8v4.8c0,0.8,0.4,1.2,1.2,1.2h2.2c0.8,0,1.2-0.4,1.4-1.1c0.2-0.8,0.3-1.7,0.3-2.7c0.5,0.2,1,0.3,1.5,0.5
				c-0.1,1-0.2,1.8-0.4,2.6c-0.2,1.3-1,2-2.5,2h-2.9c-1.6,0-2.3-0.8-2.3-2.3v-4c-1.1,0.7-2.2,1.3-3.4,1.9
				C151.2,18.6,150.9,18.2,150.6,17.7z"/>
			<path class="st0" d="M119.3,41.8l5,0.1l4.7-0.2c-0.2,0.5-0.4,0.9-0.5,1.4l-5.1,0l-4.4-0.1c-1.8,0-3.2-0.7-4.1-2
				c-0.7,0.6-1.4,1.4-2.2,2.2l-0.7-1.5c0,0,0.8-0.7,2.3-2v-5.9h-2.2v-1.3h3.6v7.4C116.5,41.2,117.7,41.8,119.3,41.8z M113.9,26.9
				c0.9,1.1,1.8,2.2,2.6,3.3l-1.2,0.8c-0.8-1.1-1.6-2.3-2.4-3.4L113.9,26.9z M123.6,35.4l1.1-0.7c1.3,1.7,2.4,3.3,3.4,4.9l-1.2,0.8
				c-0.3-0.4-0.5-0.9-0.8-1.3c-3.2,0.2-5.6,0.4-7,0.6c-0.4,0.1-0.8,0.2-1.2,0.3l-0.6-1.2c0.4-0.3,0.8-0.7,1.1-1.1
				c0.8-1.2,1.5-2.5,2.3-4.1H117v-1.3h11.8v1.3h-6.5c-1,1.8-1.9,3.4-2.9,4.8c1.7-0.1,3.7-0.2,5.9-0.4
				C124.7,37.1,124.2,36.2,123.6,35.4z M118.1,27.8h9.6v1.3h-9.6V27.8z"/>
			<path class="st0" d="M139.3,26.8h1.3v1.4h5.1v1.1h-5.1v1h-1.3v-1h-4.1v1H134v-1h-5.1v-1.1h5.1v-1.4h1.3v1.4h4.1V26.8z
				 M129.4,30.8h15.7v3.1h-1.3v-2h-13.1v2h-1.3V30.8z M130.9,38.5h12.8v5.2h-1.3v-0.9h-10.2v0.9h-1.3V38.5z M132.1,33.2h10.4v4.3
				h-1.3v-0.4h-7.8v0.4h-1.3V33.2z M142.4,39.6h-10.2v2.2h10.2V39.6z M141.2,34.3h-7.8V36h7.8V34.3z"/>
			<path class="st0" d="M145.7,36.1h7.6v-7.2h-6.8v-1.3h15.2v1.3h-6.9v7.2h7.7v1.3h-7.7v6.3h-1.4v-6.3h-7.6V36.1z M147.4,30.8
				l1.1-0.8c1.3,1.5,2.4,2.9,3.3,4.3l-1.2,0.9C149.7,33.9,148.6,32.4,147.4,30.8z M156.1,34.4c1.3-1.3,2.4-2.8,3.4-4.4l1.3,0.8
				c-1.3,1.8-2.5,3.3-3.6,4.5L156.1,34.4z"/>
			<path class="st0" d="M173.7,29c1.8,1.7,3.5,3.4,5.1,5.1l-1.2,1c-0.5-0.5-0.9-1.1-1.4-1.6c-5.1,0.2-9.1,0.4-11.8,0.6
				c-0.6,0-1.2,0.1-1.8,0.3L162,33c0.5-0.2,1-0.5,1.4-0.8c2-1.6,3.7-3.4,5.4-5.5l1.3,0.8c-1.7,2-3.5,3.8-5.4,5.4
				c3.5-0.1,7-0.2,10.3-0.4c-0.8-0.9-1.6-1.7-2.4-2.5L173.7,29z M176.2,35.9v7.8h-1.4v-1.1h-9.4v1.1H164v-7.8H176.2z M174.8,37.1
				h-9.4v4.2h9.4V37.1z"/>
		</g>
	</g>
	<rect x="104.4" y="7.8" class="st0" width="0.7" height="35.7"/>
	<polygon class="st0" points="8.8,26.1 5.7,26.1 5.7,6 38.1,6 38.1,11.3 40.8,9.8 42.6,12.3 35,17.2 35,9.1 8.8,9.1 	"/>
	<polygon class="st0" points="38.1,44 5.7,44 5.7,38.4 3,40.2 1.2,37.7 8.8,32.4 8.8,40.9 35,40.9 35,25.5 38.1,25.5 	"/>
	<path class="st0" d="M30.6,36.4H13.2V13.7h17.4V36.4z M16.1,33.5h11.6V16.6H16.1V33.5z"/>
</g>
</svg>
