<?xml version="1.0" encoding="UTF-8"?>
<svg width="38px" height="36px" viewBox="0 0 38 36" version="1.1" xmlns="http://www.w3.org/2000/svg" xmlns:xlink="http://www.w3.org/1999/xlink">
    <!-- Generator: Sketch 52.5 (67469) - http://www.bohemiancoding.com/sketch -->
    <title>文件夹 copy 2</title>
    <desc>Created with Sketch.</desc>
    <g id="页面-1" stroke="none" stroke-width="1" fill="none" fill-rule="evenodd">
        <g id="清洗库分类文件夹-copy-2" transform="translate(-449.000000, -217.000000)">
            <g id="文件夹-copy-2" transform="translate(442.000000, 209.000000)">
                <rect id="矩形" fill="#000000" opacity="0" x="0" y="0" width="51" height="51"></rect>
                <path d="M42.6241709,10.4 L21.249921,10.4 C21.249921,9.07489362 20.1867675,8 18.8747236,8 L9.37519741,8 C8.06378522,8 7,9.07425532 7,10.4 L7,17.5993617 C7,18.9257447 8.06315352,20 9.37519741,20 L42.6248026,20 C43.9362148,20 45,18.9257447 45,17.5993617 L45,12.8 C44.9993683,11.4742553 43.9362148,10.4 42.6241709,10.4 Z" id="路径" fill="#CCA352"></path>
                <path d="M39.5718438,12 L10.4288021,12 C9.08779329,12 8,13.0443223 8,14.3331265 L8,16.666253 C8,17.9556777 9.08714734,19 10.4288021,19 L39.5711979,19 C40.9122067,19 42,17.9556777 42,16.666253 L42,14.3331265 C42,13.0449428 40.9128527,12 39.5718438,12 Z" id="路径" fill="#FFFFFF"></path>
                <path d="M42.6241709,15 L9.37519741,15 C8.06378522,15 7,16.0817634 7,17.4167738 L7,41.5832262 C7,42.9163083 8.06315352,44 9.37519741,44 L42.6248026,44 C43.9362148,44 45,42.9169511 45,41.5832262 L45,17.416131 C44.9993683,16.0817634 43.9362148,15 42.6241709,15 Z" id="路径" fill="#FFCC66"></path>
            </g>
        </g>
    </g>
</svg>