<?xml version="1.0" encoding="UTF-8"?>
<svg width="36px" height="36px" viewBox="0 0 36 36" version="1.1" xmlns="http://www.w3.org/2000/svg" xmlns:xlink="http://www.w3.org/1999/xlink">
    <!-- Generator: Sketch 52.2 (67145) - http://www.bohemiancoding.com/sketch -->
    <title>LOGO-0103</title>
    <desc>Created with Sketch.</desc>
    <g id="图文和视频质检" stroke="none" stroke-width="1" fill="none" fill-rule="evenodd">
        <g id="图文质检-质检记录" transform="translate(-167.000000, -10.000000)" fill="#FFFFFF">
            <g id="LOGO-0103" transform="translate(167.000000, 10.000000)">
                <g id="Group">
                    <path d="M13.3548387,14.516129 C12.8903226,14.516129 12.4258065,14.7483871 12.0774194,15.0967742 C11.6129032,15.5612903 11.6129032,16.0258065 11.6129032,17.7677419 C11.6129032,19.5096774 11.7290323,19.9741935 12.0774194,20.4387097 C12.4258065,20.7870968 12.8903226,21.0193548 13.3548387,21.0193548 C13.8193548,21.0193548 14.283871,20.7870968 14.6322581,20.4387097 C15.0967742,19.9741935 15.0967742,19.5096774 15.0967742,17.7677419 C15.0967742,16.0258065 14.9806452,15.5612903 14.6322581,15.0967742 C14.283871,14.7483871 13.8193548,14.516129 13.3548387,14.516129 Z" id="Path"></path>
                    <path d="M28.8,14.516129 C28.3354839,14.516129 27.8709677,14.7483871 27.5225806,15.0967742 C27.0580645,15.5612903 27.0580645,16.0258065 27.0580645,17.7677419 C27.0580645,19.5096774 27.1741935,19.9741935 27.5225806,20.4387097 C27.8709677,20.7870968 28.3354839,21.0193548 28.8,21.0193548 C29.2645161,21.0193548 29.7290323,20.7870968 30.0774194,20.4387097 C30.5419355,19.9741935 30.5419355,19.5096774 30.5419355,17.7677419 C30.5419355,16.0258065 30.4258065,15.5612903 30.0774194,15.0967742 C29.7290323,14.7483871 29.2645161,14.516129 28.8,14.516129 Z" id="Path"></path>
                    <path d="M18,0 C8.01290323,0 0,8.01290323 0,18 C0,27.9870968 8.01290323,36 18,36 C27.9870968,36 36,27.9870968 36,18 C36,8.01290323 27.9870968,0 18,0 Z M9.52258065,21.9483871 L4.18064516,21.9483871 L4.18064516,13.4709677 L5.45806452,13.4709677 L5.45806452,20.7870968 L9.52258065,20.7870968 L9.52258065,21.9483871 Z M15.5612903,21.1354839 C14.9806452,21.716129 14.283871,22.0645161 13.3548387,22.0645161 C12.4258065,22.0645161 11.7290323,21.716129 11.1483871,21.1354839 C10.3354839,20.3225806 10.3354839,19.3935484 10.3354839,17.7677419 C10.3354839,16.1419355 10.3354839,15.2129032 11.1483871,14.4 C11.7290323,13.8193548 12.4258065,13.4709677 13.3548387,13.4709677 C14.283871,13.4709677 14.9806452,13.8193548 15.5612903,14.4 C16.3741935,15.2129032 16.3741935,16.1419355 16.3741935,17.7677419 C16.3741935,19.2774194 16.4903226,20.2064516 15.5612903,21.1354839 Z M24.1548387,18.6967742 C24.1548387,19.7419355 23.9225806,20.4387097 23.3419355,21.1354839 C22.6451613,21.8322581 21.9483871,22.0645161 21.0193548,22.0645161 C20.0903226,22.0645161 19.3935484,21.716129 18.8129032,21.1354839 C18,20.3225806 18,19.3935484 18,17.7677419 C18,16.1419355 18,15.2129032 18.8129032,14.4 C19.3935484,13.8193548 20.0903226,13.4709677 21.0193548,13.4709677 C22.7612903,13.4709677 23.9225806,14.6322581 24.1548387,16.1419355 L22.8774194,16.1419355 C22.6451613,15.2129032 22.0645161,14.6322581 21.1354839,14.6322581 C20.6709677,14.6322581 20.2064516,14.8645161 19.8580645,15.2129032 C19.3935484,15.6774194 19.3935484,16.1419355 19.3935484,17.883871 C19.3935484,19.6258065 19.5096774,20.0903226 19.8580645,20.5548387 C20.2064516,20.9032258 20.5548387,21.0193548 21.1354839,21.0193548 C21.716129,21.0193548 22.1806452,20.7870968 22.5290323,20.4387097 C22.8774194,20.0903226 22.9935484,19.6258065 22.9935484,19.1612903 L22.9935484,18.6967742 L21.1354839,18.6967742 L21.1354839,17.6516129 L24.2709677,17.6516129 L24.2709677,18.6967742 L24.1548387,18.6967742 Z M28.8,21.9483871 C27.8709677,21.9483871 27.1741935,21.6 26.5935484,21.0193548 C25.7806452,20.2064516 25.7806452,19.2774194 25.7806452,17.6516129 C25.7806452,16.0258065 25.7806452,15.0967742 26.5935484,14.283871 C27.1741935,13.7032258 27.8709677,13.3548387 28.8,13.3548387 C29.7290323,13.3548387 30.4258065,13.7032258 31.0064516,14.283871 C31.8193548,15.0967742 31.8193548,16.0258065 31.8193548,17.6516129 C31.8193548,19.2774194 31.8193548,20.2064516 31.0064516,21.0193548 C30.4258065,21.716129 29.7290323,21.9483871 28.8,21.9483871 Z" id="Shape" fill-rule="nonzero"></path>
                </g>
            </g>
        </g>
    </g>
</svg>