<?xml version="1.0" encoding="UTF-8"?>
<svg width="143px" height="31px" viewBox="0 0 143 31" version="1.1" xmlns="http://www.w3.org/2000/svg" xmlns:xlink="http://www.w3.org/1999/xlink">
    <!-- Generator: Sketch 52.2 (67145) - http://www.bohemiancoding.com/sketch -->
    <title>LOGO-0103</title>
    <desc>Created with Sketch.</desc>
    <g id="图文和视频质检" stroke="none" stroke-width="1" fill="none" fill-rule="evenodd">
        <g id="图文质检-质检记录" transform="translate(-11.000000, -12.000000)" fill="#FFFFFF">
            <g id="LOGO-0103" transform="translate(11.000000, 12.000000)">
                <g id="图层_2_1_" transform="translate(39.000000, 8.000000)">
                    <g id="Group">
                        <path d="M13.7,1.3 L13.7,2.1 L5.7,2.1 L5,4.8 L11.5,4.8 L10.3,12.9 L14.1,12.9 L14.1,13.7 L0.8,13.7 L0.8,12.9 L9.6,12.9 L10.1,10 L3.1,10 L5,2.1 L1,2.1 L1,1.3 L13.7,1.3 Z M10.7,5.6 L4.8,5.6 L3.9,9.2 L10.1,9.2 L10.7,5.6 Z" id="Shape" fill-rule="nonzero"></path>
                        <path d="M21.5,1.2 L21.5,2 L20.4,2 L20.4,10.5 C20.8,10.4 21.1,10.3 21.5,10.2 L21.5,11 C21.1,11.1 20.8,11.2 20.4,11.3 L20.4,14.3 L19.6,14.3 L19.6,11.5 C18.4,11.8 17.1,12.1 15.8,12.3 L15.6,11.5 C15.9,11.4 16.3,11.4 16.6,11.3 L16.6,2 L15.6,2 L15.6,1.2 L21.5,1.2 Z M19.6,4.4 L19.6,2 L17.3,2 L17.3,4.4 L19.6,4.4 Z M19.6,7.6 L19.6,5.2 L17.3,5.2 L17.3,7.6 L19.6,7.6 Z M19.6,10.7 L19.6,8.3 L17.3,8.3 L17.3,11.3 C18.1,11.1 18.9,10.9 19.6,10.7 Z M25.6,3.9 C26.2,2.9 26.7,1.8 27.1,0.6 L27.9,0.9 C27.4,2.1 26.9,3.1 26.4,3.9 L28.8,3.9 L28.8,4.7 L25.7,4.7 L25.7,5.3 C25.7,6.1 25.7,6.8 25.6,7.5 L29,7.5 L29,8.3 L25.7,8.3 C26.1,10 27.2,11.8 29.2,13.6 L28.7,14.2 C26.8,12.4 25.7,10.6 25.3,8.8 C24.7,11.3 23.6,13.1 21.8,14.2 L21.3,13.5 C23.1,12.4 24.2,10.7 24.6,8.2 L21.6,8.2 L21.6,7.4 L24.7,7.4 C24.8,6.7 24.8,6.1 24.8,5.3 L24.8,4.5 L21.8,4.5 L21.8,3.7 L25.6,3.7 L25.6,3.9 Z M24.6,3 L24,3.4 C23.7,2.7 23.2,1.9 22.5,1 L23.1,0.6 C23.7,1.6 24.2,2.4 24.6,3 Z" id="Shape" fill-rule="nonzero"></path>
                        <path d="M40.5,14.1 L40.3,13.3 L41.8,13.3 C42.2,13.3 42.5,13.1 42.5,12.6 L42.5,2 L32.3,2 L32.3,14.2 L31.5,14.2 L31.5,1.2 L43.3,1.2 L43.3,12.9 C43.3,13.7 42.9,14.1 42.1,14.1 L40.5,14.1 Z M35.4,8.4 C34.8,10 34.1,11.3 33.3,12.4 L32.8,11.8 C33.6,10.6 34.3,9.3 34.9,7.7 C34.1,6.7 33.4,5.8 32.7,5 L33.2,4.5 C33.8,5.1 34.5,5.9 35.2,6.9 C35.5,5.8 35.8,4.5 36,3.2 L36.8,3.3 C36.5,4.9 36.2,6.3 35.8,7.6 C36.4,8.4 37,9.3 37.7,10.3 L37,10.8 C36.5,10 35.9,9.2 35.4,8.4 Z M39.8,8.8 C39.2,10.4 38.4,11.7 37.6,12.8 L37,12.2 C37.9,11 38.6,9.6 39.2,8 C38.5,6.9 37.7,5.9 37,5.1 L37.5,4.6 C38.1,5.3 38.8,6.1 39.4,7.1 C39.8,5.9 40.1,4.6 40.3,3.2 L41.1,3.3 C40.8,5 40.4,6.5 40,7.9 C40.6,8.8 41.2,9.8 41.9,11 L41.4,11.5 C40.9,10.5 40.3,9.6 39.8,8.8 Z" id="Shape" fill-rule="nonzero"></path>
                        <path d="M58.5,4.2 L57.7,4.2 L57.7,2.5 L47,2.5 L47,4.3 L46.2,4.3 L46.2,1.7 L52,1.7 C51.8,1.3 51.7,0.9 51.5,0.5 L52.3,0.4 C52.5,0.8 52.6,1.2 52.8,1.7 L58.5,1.7 L58.5,4.2 Z M48.4,11.2 L48.4,12.1 L47.6,12.1 L47.6,5 L52,5 L52,3.4 L52.8,3.4 L52.8,5 L57.2,5 L57.2,12.1 L56.4,12.1 L56.4,11.2 L52.8,11.2 L52.8,14.3 L52,14.3 L52,11.2 L48.4,11.2 Z M48.4,5.8 L48.4,7.7 L52,7.7 L52,5.8 L48.4,5.8 Z M48.4,10.4 L52,10.4 L52,8.4 L48.4,8.4 L48.4,10.4 Z M56.4,5.8 L52.8,5.8 L52.8,7.7 L56.4,7.7 L56.4,5.8 Z M56.4,10.4 L56.4,8.4 L52.8,8.4 L52.8,10.4 L56.4,10.4 Z" id="Shape" fill-rule="nonzero"></path>
                        <path d="M63.7,14.2 L62.9,14.2 L62.9,6.2 C62.4,7.9 61.7,9.4 60.8,10.8 L60.5,10 C61.6,8.4 62.4,6.5 62.9,4.3 L60.8,4.3 L60.8,3.5 L63,3.5 L63,0.5 L63.8,0.5 L63.8,3.5 L65.7,3.5 L65.7,4.3 L63.8,4.3 L63.8,5.4 C64.5,6.3 65.3,7.3 66.1,8.4 L65.6,9.1 C64.9,7.9 64.3,7 63.8,6.3 L63.8,14.2 L63.7,14.2 Z M65.6,14.1 L65.1,13.4 C68.7,12.2 71.3,10 73.1,6.6 L73.8,7 C73.1,8.4 72.2,9.6 71.2,10.6 C72.3,11.6 73.3,12.6 74.1,13.6 L73.5,14.2 C72.8,13.2 71.9,12.2 70.7,11.1 C69.3,12.4 67.6,13.4 65.6,14.1 Z M69.8,2.3 C69.6,1.7 69.3,1.2 69.1,0.7 L69.9,0.5 C70.2,1 70.4,1.6 70.6,2.2 L74,2.2 L74,3 L69.9,3 C69,4.6 68.2,5.7 67.5,6.3 C68.6,6.2 69.6,6.2 70.6,6.1 C71,5.5 71.3,5 71.7,4.3 L72.4,4.7 C70.9,7.7 68.7,9.7 65.8,10.8 L65.4,10.1 C67.3,9.4 68.9,8.3 70.2,6.8 C69.1,6.9 67.9,6.9 66.6,7 L66.4,6.3 C66.5,6.3 66.5,6.3 66.6,6.2 C67.2,5.8 68.1,4.7 69.1,2.9 L66,2.9 L66,2.1 L69.8,2.1 L69.8,2.3 Z" id="Shape" fill-rule="nonzero"></path>
                        <polygon id="Path" points="76.7 2.5 76.7 1.8 88.1 1.8 88.1 2.6 82.8 2.6 82.8 12.4 89.1 12.4 89.1 13.2 75.7 13.2 75.7 12.4 82 12.4 82 2.6 76.7 2.6"></polygon>
                        <path d="M101.7,10.4 L104,10.4 L104,11.2 L90.7,11.2 L90.7,10.4 L93,10.4 L93,1.2 L101.7,1.2 L101.7,10.4 Z M95.8,11.8 C94.7,12.7 93.3,13.5 91.6,14.2 L91.1,13.6 C92.7,12.9 94.1,12.2 95.2,11.3 L95.8,11.8 Z M100.9,3.6 L100.9,2 L93.8,2 L93.8,3.6 L100.9,3.6 Z M100.9,5.8 L100.9,4.2 L93.8,4.2 L93.8,5.8 L100.9,5.8 Z M100.9,8.1 L100.9,6.5 L93.8,6.5 L93.8,8.1 L100.9,8.1 Z M100.9,10.4 L100.9,8.8 L93.8,8.8 L93.8,10.4 L100.9,10.4 Z M103.6,13.5 L103.2,14.2 C101.8,13.2 100.4,12.4 98.9,11.9 L99.3,11.3 C100.9,11.9 102.3,12.6 103.6,13.5 Z" id="Shape" fill-rule="nonzero"></path>
                    </g>
                </g>
                <g id="Group">
                    <path d="M11.5,12.5 C11.1,12.5 10.7,12.7 10.4,13 C10,13.4 10,13.8 10,15.3 C10,16.8 10.1,17.2 10.4,17.6 C10.7,17.9 11.1,18.1 11.5,18.1 C11.9,18.1 12.3,17.9 12.6,17.6 C13,17.2 13,16.8 13,15.3 C13,13.8 12.9,13.4 12.6,13 C12.3,12.7 11.9,12.5 11.5,12.5 Z" id="Path"></path>
                    <path d="M24.8,12.5 C24.4,12.5 24,12.7 23.7,13 C23.3,13.4 23.3,13.8 23.3,15.3 C23.3,16.8 23.4,17.2 23.7,17.6 C24,17.9 24.4,18.1 24.8,18.1 C25.2,18.1 25.6,17.9 25.9,17.6 C26.3,17.2 26.3,16.8 26.3,15.3 C26.3,13.8 26.2,13.4 25.9,13 C25.6,12.7 25.2,12.5 24.8,12.5 Z" id="Path"></path>
                    <path d="M15.5,0 C6.9,0 0,6.9 0,15.5 C0,24.1 6.9,31 15.5,31 C24.1,31 31,24.1 31,15.5 C31,6.9 24.1,0 15.5,0 Z M8.2,18.9 L3.6,18.9 L3.6,11.6 L4.7,11.6 L4.7,17.9 L8.2,17.9 L8.2,18.9 Z M13.4,18.2 C12.9,18.7 12.3,19 11.5,19 C10.7,19 10.1,18.7 9.6,18.2 C8.9,17.5 8.9,16.7 8.9,15.3 C8.9,13.9 8.9,13.1 9.6,12.4 C10.1,11.9 10.7,11.6 11.5,11.6 C12.3,11.6 12.9,11.9 13.4,12.4 C14.1,13.1 14.1,13.9 14.1,15.3 C14.1,16.6 14.2,17.4 13.4,18.2 Z M20.8,16.1 C20.8,17 20.6,17.6 20.1,18.2 C19.5,18.8 18.9,19 18.1,19 C17.3,19 16.7,18.7 16.2,18.2 C15.5,17.5 15.5,16.7 15.5,15.3 C15.5,13.9 15.5,13.1 16.2,12.4 C16.7,11.9 17.3,11.6 18.1,11.6 C19.6,11.6 20.6,12.6 20.8,13.9 L19.7,13.9 C19.5,13.1 19,12.6 18.2,12.6 C17.8,12.6 17.4,12.8 17.1,13.1 C16.7,13.5 16.7,13.9 16.7,15.4 C16.7,16.9 16.8,17.3 17.1,17.7 C17.4,18 17.7,18.1 18.2,18.1 C18.7,18.1 19.1,17.9 19.4,17.6 C19.7,17.3 19.8,16.9 19.8,16.5 L19.8,16.1 L18.2,16.1 L18.2,15.2 L20.9,15.2 L20.9,16.1 L20.8,16.1 Z M24.8,18.9 C24,18.9 23.4,18.6 22.9,18.1 C22.2,17.4 22.2,16.6 22.2,15.2 C22.2,13.8 22.2,13 22.9,12.3 C23.4,11.8 24,11.5 24.8,11.5 C25.6,11.5 26.2,11.8 26.7,12.3 C27.4,13 27.4,13.8 27.4,15.2 C27.4,16.6 27.4,17.4 26.7,18.1 C26.2,18.7 25.6,18.9 24.8,18.9 Z" id="Shape" fill-rule="nonzero"></path>
                </g>
            </g>
        </g>
    </g>
</svg>