<?xml version="1.0" encoding="UTF-8"?>
<svg width="17px" height="15px" viewBox="0 0 17 15" version="1.1" xmlns="http://www.w3.org/2000/svg" xmlns:xlink="http://www.w3.org/1999/xlink">
    <!-- Generator: Sketch 52.5 (67469) - http://www.bohemiancoding.com/sketch -->
    <title>选词助手 查找</title>
    <desc>Created with Sketch.</desc>
    <g id="个人中心和系统管理" stroke="none" stroke-width="1" fill="none" fill-rule="evenodd">
        <g id="系统管理-下拉配置-下拉列表(弹窗)" transform="translate(-380.000000, -498.000000)">
            <g id="选词助手-查找" transform="translate(380.000000, 497.000000)">
                <g id="分组">
                    <rect id="矩形" fill="#000000" opacity="0" x="0" y="0" width="17" height="17"></rect>
                    <path d="M6.640625,3.978 L6.109375,3.978 C5.7109375,3.978 5.488875,4.1745625 5.3263125,4.61975 L3.19175,10.9533125 C3.0929375,11.2444375 3.24275,11.5631875 3.525375,11.664125 C3.8090625,11.766125 4.11825,11.611 4.216,11.319875 L4.8099375,9.5571875 L7.941125,9.5571875 L8.5085,11.24975 C8.5626875,13.2568125 10.197875,14.8696875 12.2176875,14.8696875 C13.0443125,14.8696875 13.8008125,14.59025 14.418125,14.1344375 L16.0299375,15.7451875 C16.245625,15.960875 16.5951875,15.960875 16.810875,15.7451875 C17.0265625,15.5295 17.0265625,15.1799375 16.810875,14.96425 L15.200125,13.3524375 C15.6580625,12.733 15.9375,11.9765 15.9375,11.149875 C15.9375,9.0960625 14.2725625,7.431125 12.21875,7.431125 C10.839625,7.431125 9.649625,8.1908125 9.007875,9.3064375 L7.42475,4.5868125 C7.278125,4.1766875 7.0560625,3.978 6.640625,3.978 Z M5.1690625,8.493625 L6.3325,5.0405 L6.4270625,5.0405 L7.5851875,8.493625 L5.1690625,8.493625 Z M14.3363125,12.7383125 C14.201375,12.7425625 14.0675,12.7935625 13.9644375,12.8955625 C13.8624375,12.998625 13.8114375,13.1314375 13.80825,13.266375 C13.364125,13.6 12.8169375,13.806125 12.21875,13.806125 C10.780125,13.806125 9.6166875,12.6618125 9.571,11.234875 C9.581625,11.175375 9.581625,11.115875 9.573125,11.0553125 C9.624125,9.6336875 10.7854375,8.4946875 12.21875,8.4946875 C13.6860625,8.4946875 14.875,9.683625 14.875,11.1509375 C14.875,11.7480625 14.6699375,12.2941875 14.3363125,12.7383125 Z M6.90625,13.806125 L2.125,13.806125 C1.5374375,13.806125 1.0625,13.330125 1.0625,12.743625 L1.0625,3.181125 C1.0625,2.5935625 1.5374375,2.118625 2.125,2.118625 L11.6875,2.118625 C12.274,2.118625 12.75,2.5935625 12.75,3.181125 L12.75,5.837375 C12.75,6.130625 12.988,6.368625 13.28125,6.368625 C13.5745,6.368625 13.8125,6.130625 13.8125,5.837375 L13.8125,3.181125 C13.8125,2.008125 12.8605,1.056125 11.6875,1.056125 L2.125,1.056125 C0.952,1.056125 0,2.008125 0,3.181125 L0,12.743625 C0,13.916625 0.952,14.868625 2.125,14.868625 L6.90625,14.868625 C7.1995,14.868625 7.4375,14.630625 7.4375,14.337375 C7.4375,14.044125 7.1995,13.806125 6.90625,13.806125 Z" id="形状" fill="#F56C6C" fill-rule="nonzero"></path>
                </g>
            </g>
        </g>
    </g>
</svg>