<?xml version="1.0" encoding="utf-8"?>
<!-- Generator: Adobe Illustrator 21.0.0, SVG Export Plug-In . SVG Version: 6.00 Build 0)  -->
<svg version="1.1" id="图层_1" xmlns="http://www.w3.org/2000/svg" xmlns:xlink="http://www.w3.org/1999/xlink" x="0px" y="0px"
	 viewBox="0 0 15 16" style="enable-background:new 0 0 15 16;" xml:space="preserve">
<style type="text/css">
	.st0{fill:#EC2C4F;}
</style>
<title>delete</title>
<desc>Created with Sketch.</desc>
<g id="页面-1">
	<g id="delete">
		<path id="Shape" class="st0" d="M1.9,16c-0.1,0-0.1-0.1-0.2-0.2C1.8,15.8,1.9,15.9,1.9,16z M1.8,15.9c-0.1-0.1-0.1-0.1-0.2-0.2
			C1.7,15.7,1.7,15.8,1.8,15.9z M14.1,2.5c-0.1-0.1-0.3-0.2-0.4-0.2h-2.9v-1c0-0.7-0.5-1.3-1.1-1.3h-5C4,0,3.5,0.6,3.5,1.3v1H0.6
			C0.3,2.3,0,2.6,0,2.9s0.3,0.6,0.6,0.6h0.5v11.2c0,0.7,0.5,1.3,1.1,1.3h10c0.6,0,1.1-0.6,1.1-1.3V3.6h0.3c0.3,0,0.6-0.3,0.6-0.6
			C14.2,2.8,14.2,2.6,14.1,2.5z M4.6,1.3h5v1h-5V1.3z M12.2,14.7h-10V3.6h1.4h8.6L12.2,14.7L12.2,14.7z M7.1,5.7
			C6.8,5.7,6.5,6,6.5,6.4v6c0,0.4,0.3,0.6,0.6,0.6s0.6-0.3,0.6-0.6v-6C7.7,6,7.4,5.7,7.1,5.7z M4,5.7C3.7,5.7,3.4,6,3.4,6.4v6
			C3.4,12.7,3.7,13,4,13s0.6-0.3,0.6-0.6v-6C4.6,6,4.3,5.7,4,5.7z M10.2,5.7C9.8,5.7,9.6,6,9.6,6.4v6c0,0.4,0.3,0.6,0.6,0.6
			c0.3,0,0.6-0.3,0.6-0.6v-6C10.7,6,10.5,5.7,10.2,5.7z"/>
	</g>
</g>
</svg>
