<?xml version="1.0" encoding="UTF-8"?>
<svg width="46px" height="42px" viewBox="0 0 46 42" version="1.1" xmlns="http://www.w3.org/2000/svg" xmlns:xlink="http://www.w3.org/1999/xlink">
    <!-- Generator: Sketch 52.5 (67469) - http://www.bohemiancoding.com/sketch -->
    <title>设置</title>
    <desc>Created with Sketch.</desc>
    <g id="页面-1" stroke="none" stroke-width="1" fill="none" fill-rule="evenodd">
        <g id="Mobile" transform="translate(-1.000000, -3.000000)">
            <g id="设置">
                <g id="分组">
                    <rect id="矩形" fill="#000000" opacity="0" x="0" y="0" width="48" height="48"></rect>
                    <path d="M45.273,19.029 C42.9642179,18.5206642 40.9734543,17.0694737 39.783,15.027 C38.5930319,13.016088 38.3200718,10.5922021 39.033,8.367 C39.1552648,7.96612296 39.0252065,7.53101876 38.703,7.263 C36.5837131,5.43371423 34.1420124,4.01549305 31.503,3.081 C31.1029161,2.93996093 30.6573237,3.04549596 30.363,3.351 C28.7205529,5.11214266 26.4109507,6.09808131 24.003,6.066 C21.6457368,6.08003699 19.3874866,5.11919497 17.763,3.411 C17.4634653,3.03250943 16.9496105,2.89792842 16.503,3.081 C13.8608181,4.02260513 11.4186208,5.45129054 9.303,7.293 C8.98079349,7.56101876 8.85073517,7.99612296 8.973,8.397 C9.67691539,10.6131258 9.40417848,13.0241201 8.223,15.027 C7.0318702,17.0701462 5.03989338,18.5214281 2.73,19.029 C2.31668591,19.1185163 1.9974132,19.447249 1.92,19.863 C1.38,22.593 1.38,25.404 1.92,28.137 C1.9974132,28.552751 2.31668591,28.8814837 2.73,28.971 C5.03347336,29.4722765 7.02332762,30.9119306 8.22,32.943 C9.411,34.956 9.684,37.377 8.97,39.603 C8.84773517,40.003877 8.97779349,40.4389812 9.3,40.707 C11.4192869,42.5362858 13.8609876,43.9545069 16.5,44.889 L16.86,44.889 C17.1540857,44.8897859 17.4357742,44.77061 17.64,44.559 C19.2694232,42.8443781 21.5311357,41.8736176 23.8965,41.8736176 C26.2618643,41.8736176 28.5235768,42.8443781 30.153,44.559 C30.462,44.979 31.032,45.12 31.503,44.889 C34.182709,43.9783473 36.6662577,42.5696459 38.823,40.737 C39.1452065,40.4689812 39.2752648,40.033877 39.153,39.633 C38.3948304,37.4157299 38.6242275,34.9797509 39.783,32.943 C40.9796724,30.9119306 42.9695266,29.4722765 45.273,28.971 C45.6863141,28.8814837 46.0055868,28.552751 46.083,28.137 C46.626,25.407 46.626,22.596 46.083,19.863 C45.9984313,19.4509927 45.6823631,19.1255595 45.273,19.029 Z M43.263,26.97 C40.7502625,27.6828884 38.6042764,29.3277867 37.263,31.569 C35.9870556,33.7944125 35.6215445,36.4271674 36.243,38.916 C34.6586598,40.1776401 32.8874157,41.1847188 30.993,41.901 C29.1349317,40.0420976 26.6306839,38.972687 24.003,38.916 C21.3792757,38.9908778 18.8814703,40.0575372 17.013,41.901 C15.1181453,41.1856534 13.3467616,40.1784952 11.763,38.916 C12.363,36.426 11.964,33.801 10.653,31.599 C9.33823301,29.3638252 7.22541866,27.7098057 4.74,26.97 C4.4095896,24.993715 4.4095896,22.976285 4.74,21 C7.25273749,20.2871116 9.39872355,18.6422133 10.74,16.401 C12.015,14.172 12.378,11.541 11.76,9.051 C13.3440652,7.78895339 15.1153756,6.78183693 17.01,6.066 C18.9198263,7.81149963 21.4126857,8.78082606 24,8.784 C26.5900644,8.79555268 29.0880944,7.82421568 30.99,6.066 C32.8852546,6.78182213 34.656716,7.7900367 36.24,9.054 C35.6446598,11.5410886 36.0315054,14.1619682 37.32,16.371 C38.6612764,18.6122133 40.8072625,20.2571116 43.32,20.97 C43.65,22.947 43.65,24.963 43.32,26.94 L43.26,26.97 L43.263,26.97 Z" id="形状" fill="#333333" fill-rule="nonzero"></path>
                    <path d="M24,15.027 C19.032,15.027 15,19.038 15,23.985 C15.005563,26.3663809 15.9569015,28.648016 17.6447303,30.3279682 C19.3325591,32.0079205 21.6186192,32.9485761 24,32.943 C28.974,32.943 33.003,28.932 33.003,23.985 C33.0019315,21.6062853 32.0529229,19.3260736 30.366,17.649 C28.6748163,15.9685045 26.3871489,15.0258259 24.003,15.027 L24,15.027 Z M24,29.958 C20.688,29.958 18,27.282 18,23.985 C18,20.685 20.688,18.015 24,18.015 C27.315,18.015 30,20.685 30,23.985 C30,25.569 29.37,27.087 28.245,28.209 C27.1176455,29.3296042 25.5925539,29.9584079 24.003,29.958 L24,29.958 Z" id="形状" fill="#333333" fill-rule="nonzero"></path>
                </g>
            </g>
        </g>
    </g>
</svg>