<?xml version="1.0" encoding="UTF-8"?>
<svg width="16px" height="16px" viewBox="0 0 16 16" version="1.1" xmlns="http://www.w3.org/2000/svg" xmlns:xlink="http://www.w3.org/1999/xlink">
    <!-- Generator: Sketch 52.5 (67469) - http://www.bohemiancoding.com/sketch -->
    <title>形状 copy 17</title>
    <desc>Created with Sketch.</desc>
    <g id="页面-1" stroke="none" stroke-width="1" fill="none" fill-rule="evenodd">
        <g id="题库管理--普通员工做题页面-copy-4" transform="translate(-608.000000, -188.000000)" fill="#2A2A2A" fill-rule="nonzero">
            <g id="分组-5" transform="translate(608.000000, 186.000000)">
                <path d="M8,2 C3.58447009,2 3.24229511e-10,5.58447009 0,10 C0,14.4155299 3.58447009,18 8,18 C12.4155299,18 16,14.4155299 16,10 C15.9916055,5.58447009 12.4155299,2 8,2 Z M12.8100735,15.6663169 C12.247639,15.406086 10.4931794,15.019937 10.0986359,14.7681007 C9.62854145,14.4742917 9.77964323,12.8625393 9.77964323,12.8625393 L10.0986359,12.5855194 C10.0986359,12.5855194 10.1825813,11.8551941 10.316894,11.5949633 C10.6274921,10.9989507 10.9548793,10.0083945 10.9548793,10.0083945 C10.9548793,10.0083945 11.273872,9.77334732 11.273872,9.37040923 C11.273872,8.96747114 10.9548793,8.73242392 10.9548793,8.73242392 C10.9548793,8.73242392 11.0724029,7.60755509 11.0724029,6.82686254 C11.0724029,5.18992655 10.0398741,4.28331584 8.1930745,4.28331584 C6.34627492,4.28331584 4.99475341,5.04721931 4.99475341,6.82686254 C4.99475341,7.60755509 5.24658972,8.73242392 5.24658972,8.73242392 C5.24658972,8.73242392 4.92759706,8.96747114 4.92759706,9.37040923 C4.92759706,9.77334732 5.24658972,10.0083945 5.24658972,10.0083945 C5.24658972,10.0083945 5.61594963,11.158447 5.88457503,11.5949633 C6.03567681,11.8467996 6.10283316,12.5855194 6.10283316,12.5855194 L6.42182581,12.8625393 C6.42182581,12.8625393 6.5729276,14.4742917 6.10283316,14.7681007 C5.68310598,15.0283316 3.81951731,15.4396642 3.34102833,15.6998951 C1.6956978,14.3483736 0.654774397,12.3001049 0.654774397,10.0083945 C0.654774397,5.92025184 3.96222455,2.61280168 8.05036726,2.61280168 C12.13851,2.61280168 15.4459601,5.92025184 15.4459601,10.0083945 C15.4459601,12.2833158 14.4218258,14.3147954 12.8100735,15.6663169 Z" id="形状-copy-17"></path>
            </g>
        </g>
    </g>
</svg>