<?xml version="1.0" encoding="UTF-8"?>
<svg width="14px" height="14px" viewBox="0 0 14 14" version="1.1" xmlns="http://www.w3.org/2000/svg" xmlns:xlink="http://www.w3.org/1999/xlink">
    <!-- Generator: Sketch 52.5 (67469) - http://www.bohemiancoding.com/sketch -->
    <title>时间 (1)</title>
    <desc>Created with Sketch.</desc>
    <g id="页面-1" stroke="none" stroke-width="1" fill="none" fill-rule="evenodd">
        <g id="题库管理--普通员工做题页面" transform="translate(-981.000000, -144.000000)">
            <g id="分组-8" transform="translate(795.000000, 141.000000)">
                <g id="时间-(1)" transform="translate(185.000000, 2.000000)">
                    <rect id="矩形" fill="#000000" opacity="0" x="0" y="0" width="16" height="16"></rect>
                    <path d="M7.98671875,0.997734375 C4.136875,0.997734375 1.01573438,4.11782812 1.01573438,7.96770312 C1.01573438,11.8174844 4.13689062,14.9381094 7.98670313,14.9381094 C11.8360313,14.9381094 14.9566563,11.8174844 14.9566563,7.96770312 C14.9566563,4.11782812 11.8360313,0.997734375 7.98670313,0.997734375 L7.98671875,0.997734375 Z M11.4727813,8.73696875 L7.7716875,8.73696875 C7.69340625,8.73696875 7.61826563,8.72139062 7.54934375,8.692125 C7.3448125,8.60551562 7.20064063,8.4024375 7.20064063,8.16604687 L7.20064063,4.46492187 C7.20064063,4.14921875 7.45639063,3.8934375 7.7716875,3.8934375 C8.08804687,3.8934375 8.34378125,4.14921875 8.34378125,4.46492187 L8.34378125,7.5939375 L11.4727813,7.5939375 C11.7885938,7.5939375 12.0442656,7.8496875 12.0442656,8.1655 C12.0442656,8.48121875 11.7885156,8.73696875 11.4727813,8.73696875 Z" id="形状" fill="#2A2A2A" fill-rule="nonzero"></path>
                </g>
            </g>
        </g>
    </g>
</svg>