<?xml version="1.0" encoding="UTF-8"?>
<svg width="16px" height="15px" viewBox="0 0 16 15" version="1.1" xmlns="http://www.w3.org/2000/svg" xmlns:xlink="http://www.w3.org/1999/xlink">
    <!-- Generator: Sketch 52.5 (67469) - http://www.bohemiancoding.com/sketch -->
    <title>上传</title>
    <desc>Created with Sketch.</desc>
    <g id="页面-1" stroke="none" stroke-width="1" fill="none" fill-rule="evenodd">
        <g id="题库管理--普通员工做题页面" transform="translate(-1440.000000, -409.000000)">
            <g id="分组" transform="translate(1381.000000, 209.000000)">
                <g id="分组-5" transform="translate(0.000000, 183.000000)">
                    <g id="分组-3-copy" transform="translate(59.000000, 13.416667)">
                        <g id="上传" transform="translate(0.000000, 3.084936)">
                            <rect id="矩形" fill="#000000" opacity="0" x="0" y="0.498397436" width="18" height="17"></rect>
                            <path d="M16,10.1268989 L16,14.6650641 C16,15.1252667 15.5837309,15.4983974 15.0700159,15.4983974 L0.930482773,15.4983974 C0.416767753,15.4983974 1.06534184e-15,15.1252667 1.06534184e-15,14.6650641 L0,10.1268989 C0,9.66669627 0.416518432,9.29356553 0.930233453,9.29356553 C1.44394847,9.29356553 1.86046691,9.66669627 1.86046691,10.1268989 L1.86046691,13.8317308 L14.1395331,13.8317308 L14.1395331,10.1268989 C14.1395331,9.66669627 14.5560515,9.29356553 15.0697665,9.29356553 C15.5834816,9.29356553 16,9.66669627 16,10.1268989 Z M4.95345861,5.30903162 L7.06974737,3.37340089 L7.06974737,10.5891288 C7.06974737,11.0493486 7.48626581,11.4224621 7.99998083,11.4224621 C8.51369585,11.4224621 8.93021428,11.0493486 8.93021428,10.5891288 L8.93021428,3.37348678 L11.0464071,5.30894571 C11.228622,5.4756158 11.4698107,5.55918281 11.7111911,5.55918281 C11.9459167,5.55918281 12.1810641,5.4799969 12.3620132,5.32122992 C12.7290319,4.9991259 12.7352266,4.47154055 12.3757642,4.14277041 L8.66491823,0.748651709 C8.48995288,0.588561822 8.25041354,0.498397436 8.00032603,0.498397436 C7.75033443,0.498397436 7.51077591,0.588561822 7.33581056,0.748565814 L3.62461943,4.14268451 C3.2650611,4.47155773 3.27106397,4.99912591 3.63815944,5.32114403 C4.00515901,5.64324803 4.59409206,5.63771584 4.95345861,5.30903162 Z" id="形状" fill="#FFFFFF" fill-rule="nonzero"></path>
                        </g>
                    </g>
                </g>
            </g>
        </g>
    </g>
</svg>