<?xml version="1.0" encoding="UTF-8"?>
<svg width="158px" height="31px" viewBox="0 0 158 31" version="1.1" xmlns="http://www.w3.org/2000/svg" xmlns:xlink="http://www.w3.org/1999/xlink">
    <!-- Generator: Sketch 52.5 (67469) - http://www.bohemiancoding.com/sketch -->
    <title>分组 copy</title>
    <desc>Created with Sketch.</desc>
    <defs>
        <polygon id="path-1" points="0.251870588 0.381058824 25.8784084 0.381058824 25.8784084 29.0525616 0.251870588 29.0525616"></polygon>
        <polygon id="path-3" points="6.63865546e-05 0.539245151 25.6943259 0.539245151 25.6943259 29.210084 6.63865546e-05 29.210084"></polygon>
    </defs>
    <g id="页面-1" stroke="none" stroke-width="1" fill="none" fill-rule="evenodd">
        <g id="分组-copy">
            <polygon id="Fill-1" fill="#FFFFFF" points="32.0633782 16.3009529 25.1007563 16.3009529 24.830563 18.0349697 32.0633782 18.0349697"></polygon>
            <g id="分组" transform="translate(0.000000, 0.282608)">
                <path d="M31.3930067,20.3308824 L24.429721,20.3308824 L24.3547042,20.8108571 C24.2869899,21.2476807 24.1542168,21.6632605 23.9928975,22.0648992 L31.3930067,22.0648992 L31.3930067,20.3308824 Z" id="Fill-2" fill="#FFFFFF"></path>
                <polygon id="Fill-4" fill="#FFFFFF" points="32.7350109 11.7058084 25.7710613 11.7058084 25.5015319 13.4398252 32.7350109 13.4398252"></polygon>
                <g transform="translate(13.941176, 0.000000)">
                    <mask id="mask-2" fill="white">
                        <use xlink:href="#path-1"></use>
                    </mask>
                    <g id="Clip-7"></g>
                    <path d="M17.5030807,5.37379244 L12.7637445,5.37379244 C12.7537866,5.53776723 12.7644084,5.69975042 12.7385176,5.86438908 L12.5453328,7.10780924 L17.9810639,7.10780924 L23.5986941,3.75927143 L22.6891983,9.60593529 L22.4482151,11.1620361 L19.9341563,27.3185319 L4.04984538,27.3185319 C3.38797143,27.3165403 2.87546723,27.0848513 2.50834958,26.7217168 C2.29657647,26.508616 2.15251765,26.2357672 2.05227395,25.9323807 L0.251870588,25.9323807 C0.388626891,26.7097672 0.745122689,27.4134647 1.28351765,27.9492042 C1.97858487,28.646263 2.96442521,29.0552042 4.04984538,29.0525487 L20.7467277,29.0525487 L20.9916941,28.8414395 L21.2831311,28.5885067 L21.5241143,28.3800529 L24.1616521,11.4275824 L24.4032992,9.87148151 L25.8784084,0.380859664 L17.5030807,5.37379244 Z" id="Fill-6" fill="#FFFFFF" mask="url(#mask-2)"></path>
                </g>
                <g transform="translate(0.000000, 0.663866)">
                    <mask id="mask-4" fill="white">
                        <use xlink:href="#path-3"></use>
                    </mask>
                    <g id="Clip-9"></g>
                    <path d="M23.9284361,4.77737563 L21.6042429,19.7196613 C21.3951252,21.2080479 19.8808479,22.5105521 18.4176882,22.4859891 L7.90073025,22.4859891 L2.28177227,25.8331992 L3.19193193,19.9865353 L3.43357899,18.4304345 L5.94697395,2.27393866 L21.8299571,2.27393866 C22.492495,2.27526639 23.005663,2.50761933 23.3714529,2.87075378 C23.7359151,3.2365437 23.9583101,3.74240924 23.9603017,4.36577899 L23.9284361,4.77737563 Z M24.5976126,1.64393025 C23.9025454,0.946207563 22.916705,0.536602521 21.8299571,0.539257983 L4.89474706,0.539257983 L4.65177227,0.74837563 L4.63849496,0.759661345 L4.3948563,0.968115126 L1.72014202,18.1642244 L1.47849496,19.7203252 L6.63865546e-05,29.2102832 L8.37804958,24.2200059 L18.4176882,24.2200059 C20.8175622,24.1961067 22.9233437,22.3651655 23.317016,19.9865353 L25.6418731,5.04026639 C25.677058,4.81189664 25.6943185,4.58817395 25.6943185,4.36577899 C25.6963101,3.31222437 25.2953353,2.33833361 24.5976126,1.64393025 Z" id="Fill-8" fill="#FFFFFF" mask="url(#mask-4)"></path>
                </g>
                <polyline id="Fill-10" fill="#FFFFFF" points="8.40540084 9.56703277 20.0648714 9.56703277 20.0648714 7.83367983 8.40540084 7.83367983"></polyline>
                <polyline id="Fill-12" fill="#FFFFFF" points="7.73569328 13.8802336 19.3945 13.8802336 19.3945 12.1462168 7.73569328 12.1462168"></polyline>
                <polyline id="Fill-14" fill="#FFFFFF" points="7.06339664 18.1927706 18.724195 18.1927706 18.724195 16.4587538 7.06339664 16.4587538"></polyline>
                <path d="M52.2710471,7.88473109 C53.6452487,7.88473109 54.5574,7.18368908 54.7207109,6.02192437 C54.7977193,5.47556303 54.6815429,5.01484034 54.4286101,4.75792437 C54.0787529,4.41603361 53.4899042,4.22815966 52.7662908,4.22815966 L49.0234168,4.22815966 L48.5109126,7.88473109 L52.2710471,7.88473109 Z M47.6545261,13.9836639 L51.5414588,13.9836639 C53.1513328,13.9836639 54.1604084,13.2321681 54.354921,11.8480084 C54.4505176,11.1642269 54.3343412,10.7028403 53.9851479,10.3609496 C53.584837,9.98586555 52.9269462,9.78073109 52.0957866,9.78073109 L48.2447025,9.78073109 L47.6545261,13.9836639 Z M47.1479966,15.913521 C46.0997529,15.913521 45.5726437,15.9307815 44.8264588,15.9653025 C45.0535008,15.2476639 45.1590555,14.7524202 45.3130723,13.6583697 L46.6149126,4.38284034 C46.7251143,3.59682353 46.7576437,2.98142017 46.7656101,2.28104202 C47.5204252,2.31489916 47.8092067,2.31489916 49.0386857,2.31489916 L53.3073412,2.31489916 C56.1088538,2.31489916 57.5142571,3.51118487 57.2141899,5.64684034 C57.0688034,6.68844538 56.6346353,7.45720168 55.8638874,8.05534454 C55.4157782,8.4144958 55.0692403,8.56718487 54.3343412,8.77298319 C55.2298958,8.96019328 55.6229042,9.13147059 56.0504336,9.55833613 C56.700358,10.2082605 56.9599294,11.0619916 56.8045849,12.1726387 C56.4686689,14.5645462 54.5978958,15.913521 51.5958958,15.913521 L47.1479966,15.913521 Z" id="Fill-16" fill="#FFFFFF"></path>
                <path d="M64.7749546,8.87528487 C66.4386017,8.87528487 67.4602908,8.03748655 67.6714,6.53515882 C67.7676605,5.85071345 67.6475008,5.28775546 67.3049462,4.89474706 C66.9484504,4.46721765 66.3781899,4.2793437 65.4202319,4.2793437 L61.9668034,4.2793437 L61.3215261,8.87528487 L64.7749546,8.87528487 Z M57.8017109,15.9135874 C58.0068454,15.2304697 58.1256773,14.6329908 58.255795,13.7102176 L59.5529882,4.46721765 C59.6685008,3.64800756 59.7189546,3.0326042 59.7182908,2.2638479 C60.4910303,2.29836891 61.0493412,2.31496555 62.0072992,2.31496555 L65.785358,2.31496555 C67.5399546,2.31496555 68.7143328,2.70797395 69.4671563,3.52851176 C70.1130975,4.21162941 70.3487697,5.23663782 70.1761647,6.46611681 C69.9929378,7.76530168 69.429316,8.82416723 68.5231395,9.60952017 C67.5200387,10.4466546 66.2354588,10.839663 64.4994504,10.839663 L61.045358,10.839663 L60.6450471,13.6929571 C60.5155933,14.6150664 60.4604924,15.2643269 60.4777529,15.9135874 L57.8017109,15.9135874 Z" id="Fill-18" fill="#FFFFFF"></path>
                <path d="M81.6465,9.08081765 C81.8888109,7.35476723 81.577458,5.97127143 80.7761723,5.10027983 C80.1315588,4.41649832 79.2240546,4.05801092 78.1386345,4.05801092 C75.5349538,4.05801092 73.6157185,6.00512857 73.1822143,9.09675042 C72.9425588,10.8062042 73.2651975,12.2408176 74.0810882,13.1290697 C74.7263655,13.8121874 75.6338697,14.1713387 76.7365504,14.1713387 C79.3223067,14.1713387 81.2056933,12.2235571 81.6465,9.08081765 M82.9018697,3.74997731 C84.0463739,4.99738067 84.4891723,6.85885966 84.1778193,9.08081765 C83.5710462,13.4025824 80.5199202,16.204095 76.4152395,16.204095 C72.3105588,16.204095 70.0620462,13.419179 70.6708109,9.08081765 C70.9808361,6.87678403 71.9699958,4.98012017 73.4809538,3.74997731 C74.8910042,2.58887647 76.4690126,2.04118739 78.3855924,2.04118739 C80.3745336,2.04118739 81.8343739,2.58887647 82.9018697,3.74997731" id="Fill-20" fill="#FFFFFF"></path>
                <path d="M100.566004,5.56120168 C100.329004,6.09096639 100.329004,6.09096639 99.9964076,6.91017647 C98.8372983,9.62671429 98.4130882,10.4645126 97.4830126,11.9336471 L95.8147185,11.1987479 C96.9339958,9.40498319 97.5580294,8.05534454 98.7609538,4.89468067 L100.566004,5.56120168 Z M87.7427773,4.80904202 C88.2552815,6.56961345 88.4982563,8.05534454 88.8242143,11.1469664 L86.850542,11.8134874 C86.5206008,8.10646218 86.3460042,7.03033613 85.853416,5.38992437 L87.7427773,4.80904202 Z M96.7116008,1.71742017 C96.4593319,2.60633613 96.3570966,3.08431933 96.2681387,3.71631933 L94.7412479,14.5977395 L98.0134412,14.5977395 C98.972063,14.5977395 99.5190882,14.5645462 100.16171,14.4961681 L99.8835504,16.4771429 C99.1692311,16.4094286 98.6142395,16.3749076 97.7638277,16.3749076 L85.6675336,16.3749076 C84.8357101,16.3749076 84.2694328,16.4094286 83.5378529,16.4771429 L83.8160126,14.4961681 C84.4387185,14.5645462 84.9771134,14.5977395 85.9171471,14.5977395 L89.0087689,14.5977395 L90.5223824,3.68179832 C90.6166513,3.01527731 90.6432059,2.57115126 90.6538277,1.71742017 L92.9149538,1.71742017 C92.7350462,2.3487563 92.652063,2.81014286 92.5226092,3.73357983 L90.9977101,14.5977395 L92.7516429,14.5977395 L94.2838445,3.68179832 C94.4046681,2.82806723 94.4405168,2.43505882 94.4511387,1.71742017 L96.7116008,1.71742017 Z" id="Fill-22" fill="#FFFFFF"></path>
                <path d="M109.056845,4.46748319 C109.516903,5.18578571 110.176786,5.7660042 111.203786,6.43252521 C112.524878,5.78326471 113.36334,5.21964286 114.082971,4.46748319 L109.056845,4.46748319 Z M117.285458,3.81822269 C116.928298,4.04061765 116.703248,4.2284916 116.488155,4.46748319 C116.20734,4.79277731 115.456508,5.5097521 114.94666,5.92002101 C114.2735,6.46638235 113.834685,6.75715546 113.169492,7.11497899 C114.540374,7.5252479 115.568038,7.67992857 118.80571,8.05501261 C118.079441,8.72153361 117.906172,8.92666807 117.328609,9.81558403 C113.579097,9.09728151 112.273273,8.73879412 110.869861,8.0377521 C110.158197,8.34578571 109.568685,8.55092017 108.007937,8.97778571 C107.178769,9.21677731 106.024307,9.45643277 103.741937,9.86670168 C103.308433,9.09728151 102.990441,8.65315546 102.627307,8.27740756 L103.399382,8.19176891 C105.125433,8.00389496 107.691937,7.49205462 109.087382,7.08178571 C108.361113,6.58587815 107.897071,6.15901261 107.284324,5.3729958 C106.775139,5.78326471 106.754559,5.80052521 104.460239,6.94436555 C103.963004,6.36414706 103.673559,6.10855882 103.010357,5.68036555 C105.118794,4.82663445 106.873391,3.66486975 107.934248,2.41746639 C107.954828,2.40086975 107.997979,2.34908824 108.059718,2.29797059 C108.450071,1.83658403 108.561601,1.68389496 108.741508,1.30681933 L110.972097,1.64871008 C110.928282,1.69982773 110.887122,1.73501261 110.755013,1.90562605 C110.665391,2.02445798 110.665391,2.02445798 110.492122,2.22959244 C110.186744,2.6060042 110.122349,2.67438235 109.874063,2.89611345 L114.754139,2.91337395 L114.790651,2.91337395 C115.368878,2.91337395 115.807693,2.87818908 116.271735,2.79387815 L117.285458,3.81822269 Z M111.315315,9.11454202 C111.244282,9.37079412 111.181214,9.55866807 111.146029,9.67882773 C111.086282,9.84877731 111.051097,9.96827311 111.028525,10.0027941 C110.986038,10.1740714 110.986038,10.1740714 110.850609,10.4980378 L115.172374,10.4980378 C116.328828,10.4980378 116.747063,10.4814412 117.278819,10.4296597 C117.163971,10.7376933 117.12613,10.8744496 117.071693,11.1307017 C117.046466,11.1818193 117.044475,11.1990798 117.037172,11.2501975 C116.61429,12.9749202 116.208004,14.1884664 115.779147,15.059458 C115.124576,16.3752395 114.25292,16.7848445 112.119256,16.7848445 C111.34187,16.7848445 110.622903,16.7509874 109.315752,16.6653487 C109.32571,15.9483739 109.273929,15.6748613 108.965895,14.906105 C110.049324,15.0421975 110.928282,15.093979 111.904828,15.093979 C113.514038,15.093979 113.942895,14.6153319 114.502534,12.1723067 L110.326155,12.1723067 C109.447197,13.5392059 108.732214,14.2561807 107.464231,15.0421975 C106.198903,15.8116176 104.894408,16.3413824 102.391634,17.0410966 C102.331223,16.9561218 102.331223,16.9561218 102.258197,16.8359622 C101.811416,16.1535084 101.577735,15.8793319 101.106391,15.5042479 C103.182962,15.0083403 104.282324,14.6491891 105.348492,14.1366849 C106.492996,13.5896597 107.140265,13.0950798 107.938895,12.1723067 L104.974071,12.1723067 C104.196685,12.1723067 103.814298,12.1895672 102.880239,12.2752059 L103.141803,10.413063 C104.090466,10.4814412 104.666038,10.4980378 105.371063,10.4980378 L108.661845,10.4980378 C108.815861,10.0539118 108.87229,9.78106303 108.932038,9.35353361 C108.941332,9.28581933 108.948634,9.23403782 108.947307,9.11454202 L111.315315,9.11454202 Z" id="Fill-24" fill="#FFFFFF"></path>
                <path d="M134.659085,4.92840504 C133.640051,6.65445546 132.902497,7.66220336 131.576093,9.11474118 L129.906471,8.26034622 C131.276026,6.87685042 131.99632,5.86843866 132.909799,4.12645546 L134.659085,4.92840504 Z M123.437766,4.10919496 C124.264942,5.56106891 124.701102,6.56948067 125.116018,8.12292605 L123.129068,9.01184202 C122.755976,7.28711933 122.35832,6.26144706 121.573631,4.8945479 L123.437766,4.10919496 Z M128.421404,9.43870756 L133.519892,9.43870756 C134.514362,9.43870756 135.061387,9.40485042 135.68874,9.31921176 L135.407925,11.3181109 C134.805135,11.2324723 134.104757,11.1986151 133.146799,11.1986151 L128.173782,11.1986151 L127.639371,15.0085395 C127.540455,15.7082538 127.474068,16.4431529 127.456144,17.2125731 L125.159833,17.2125731 C125.358329,16.4431529 125.486455,15.7938924 125.596656,15.0085395 L126.131068,11.1986151 L121.303438,11.1986151 C120.435102,11.1986151 119.724766,11.2324723 119.008455,11.3181109 L119.28927,9.31921176 C119.891396,9.40485042 120.411203,9.43870756 121.495959,9.43870756 L126.378026,9.43870756 L127.193917,3.6305479 L123.125085,3.6305479 C122.185051,3.6305479 121.583589,3.66506891 120.88653,3.73344706 L121.160043,1.78566555 C121.819261,1.8540437 122.392841,1.88790084 123.4059,1.88790084 L133.712413,1.88790084 C134.742732,1.88790084 135.32627,1.8540437 135.986816,1.78566555 L135.713303,3.73344706 C135.054085,3.66506891 134.462581,3.6305479 133.521883,3.6305479 L129.236631,3.6305479 L128.421404,9.43870756 Z" id="Fill-26" fill="#FFFFFF"></path>
                <path d="M139.205037,14.4617798 L147.576382,14.4617798 L148.011213,11.3694941 L139.639205,11.3694941 L139.205037,14.4617798 Z M145.174516,2.0767042 C145.027138,2.22939328 145.027138,2.22939328 144.579692,2.70804034 C143.1796,4.17783866 141.660676,5.5951916 140.498911,6.53522521 C144.675953,6.39846891 144.675953,6.39846891 148.382978,6.14221681 C147.696541,5.2367042 147.306852,4.79324202 146.239356,3.76756975 L148.126062,2.8282 C149.990197,4.74079664 150.961432,5.93641849 152.467079,8.22609076 L150.513323,9.38785546 C150.020734,8.5162 149.84481,8.22609076 149.516197,7.73018319 C144.703171,8.14111597 144.703171,8.14111597 139.448676,8.34558655 C138.665978,8.38010756 138.139533,8.3967042 137.099919,8.46574622 L137.004323,6.56908235 C138.004104,6.39846891 138.235129,6.29556975 139.232255,5.51021681 C141.379861,3.47679664 141.548482,3.30618319 142.552911,2.0767042 C142.639877,1.97314118 142.726844,1.87090588 142.789911,1.8031916 C142.984424,1.58079664 143.00965,1.52967899 143.113213,1.30728403 L145.174516,2.0767042 Z M136.819768,17.0243008 C136.983743,16.3750403 137.093945,15.8452756 137.201491,15.0765193 L137.743869,11.2154773 C137.832827,10.5834773 137.864029,10.1054941 137.876642,9.62684706 C138.266995,9.67862857 138.806718,9.69522521 139.746751,9.69522521 L148.372356,9.69522521 C149.330314,9.69522521 149.857424,9.67862857 150.28097,9.62684706 C150.138903,10.1227546 150.065213,10.515763 149.966961,11.2154773 L149.425247,15.0765193 C149.31239,15.8797966 149.271894,16.4268218 149.259945,17.0243008 L147.198642,17.0243008 L147.323449,16.1353849 L138.988617,16.1353849 L138.863146,17.0243008 L136.819768,17.0243008 Z" id="Fill-28" fill="#FFFFFF"></path>
                <path d="M46.9731345,23.0174798 C47.7040504,23.0174798 48.2032773,22.6470429 48.3174622,22.0130513 C48.4309832,21.3876899 48.0950672,21.0703622 47.3176807,21.0703622 L45.469479,21.0703622 L45.1176303,23.0174798 L46.9731345,23.0174798 Z M44.6177395,25.7791605 L46.5130756,25.7791605 C47.3694622,25.7791605 47.8965714,25.3861521 48.0273529,24.6625387 C48.1627815,23.9150261 47.7764118,23.529984 46.9040924,23.529984 L45.0246891,23.529984 L44.6177395,25.7791605 Z M44.714,26.2923286 C44.3681261,26.2923286 44.1231597,26.2996311 43.8456639,26.3149 C43.9552017,26.0128412 44.0063193,25.8170008 44.0853193,25.3795134 L44.8155714,21.3425471 C44.8746555,21.0172529 44.8958992,20.8141101 44.8978908,20.5419252 C45.1382101,20.5571941 45.2955462,20.5571941 45.7516218,20.5571941 L47.4258908,20.5571941 C48.565084,20.5571941 49.1127731,21.0550933 48.9507899,21.9460008 C48.8717899,22.3834882 48.6706387,22.715421 48.3433529,22.9564042 C48.1541513,23.0924966 48.0007983,23.1602109 47.6688655,23.258463 C48.017395,23.3268412 48.1926555,23.401858 48.3732269,23.5757908 C48.6480672,23.8393454 48.743,24.2243874 48.6560336,24.7070176 C48.4728067,25.7180849 47.6781597,26.2923286 46.4745714,26.2923286 L44.714,26.2923286 Z" id="Fill-30" fill="#FFFFFF"></path>
                <path d="M52.3197084,25.8012672 C52.3343134,25.718284 52.3442714,25.6651748 52.4033555,25.4693345 C51.8981538,26.088721 51.3604227,26.3675445 50.652742,26.3675445 C50.0871286,26.3675445 49.6821706,26.1717042 49.4962882,25.8092336 C49.3947168,25.590158 49.3694899,25.2960655 49.4345487,24.933595 L49.7724563,23.0694605 C49.8335319,22.7302252 49.8653975,22.4666706 49.8700445,22.2250235 L50.5770613,22.2250235 C50.4894311,22.489242 50.4276916,22.7454941 50.3679437,23.076763 L50.0499521,24.8353429 C49.9278008,25.5071748 50.198658,25.8842504 50.8114059,25.8842504 C51.2588513,25.8842504 51.6631454,25.6963765 52.0508429,25.288763 C52.3031118,25.0245445 52.4239353,24.8353429 52.5494059,24.5339479 L52.8122966,23.076763 C52.8713807,22.7527966 52.9039101,22.489242 52.9118765,22.2250235 L53.6109269,22.2250235 C53.5246244,22.489242 53.4648765,22.7302252 53.4018092,23.076763 L52.9742798,25.4387966 C52.9132042,25.7793597 52.8906328,25.989805 52.8833303,26.2918639 L52.2307504,26.2918639 L52.3197084,25.8012672 Z" id="Fill-32" fill="#FFFFFF"></path>
                <path d="M54.3922966,25.0848899 C54.3969437,25.3637134 54.434784,25.4998059 54.5688849,25.6352345 C54.7335235,25.8091672 55.0315992,25.9001168 55.4319101,25.9001168 C56.1163555,25.9001168 56.5989857,25.6206294 56.6793134,25.1751756 C56.7178176,24.9634025 56.6680277,24.8054025 56.5199857,24.7071504 C56.3520277,24.5942933 56.2039857,24.5484866 55.6416916,24.4349655 C55.0362462,24.3068395 54.785305,24.2165538 54.5496328,24.0432849 C54.3073218,23.8620496 54.2084059,23.5832261 54.2681538,23.2506294 C54.3179437,22.9791084 54.4819185,22.7221924 54.7388345,22.5190496 C55.0608092,22.2627975 55.5102462,22.126705 56.0366916,22.126705 C56.5704395,22.126705 56.9654395,22.2475286 57.2044311,22.4891756 C57.3790277,22.655142 57.4580277,22.8284109 57.4971958,23.1756126 L56.8585571,23.2732008 C56.8479353,23.0693941 56.8253639,22.9791084 56.7337504,22.8735538 C56.5877,22.685016 56.3221538,22.5867639 55.9683134,22.5867639 C55.3947336,22.5867639 54.9353387,22.8662513 54.8636412,23.2665622 C54.8317756,23.4391672 54.8988261,23.5905286 55.0554983,23.6814782 C55.2181454,23.7790664 55.4119941,23.8394782 55.8813471,23.9377303 C56.6142546,24.1036966 56.849263,24.1939824 57.0537336,24.3679151 C57.2628513,24.5564529 57.3445067,24.8432429 57.288742,25.1526042 C57.1526496,25.9067555 56.3991622,26.3747807 55.3223723,26.3747807 C54.6073891,26.3747807 54.094221,26.1716378 53.8724899,25.7865958 C53.7835319,25.6272681 53.7516664,25.4998059 53.729095,25.1897807 L54.3922966,25.0848899 Z" id="Fill-34" fill="#FFFFFF"></path>
                <path d="M59.5450882,20.5571277 L59.4236008,21.2289597 L58.6614832,21.2289597 L58.7829706,20.5571277 L59.5450882,20.5571277 Z M59.2118277,22.2254218 C59.1248613,22.4889765 59.0717521,22.7007496 59.0033739,23.0771613 L58.5758445,25.439195 C58.5127773,25.7863966 58.4902059,25.9975059 58.4762647,26.2922622 L57.768584,26.2922622 C57.8675,25.9669681 57.9212731,25.7558588 57.9783655,25.439195 L58.4052311,23.0771613 C58.4709538,22.7153546 58.4961807,22.4889765 58.5048109,22.2254218 L59.2118277,22.2254218 Z" id="Fill-36" fill="#FFFFFF"></path>
                <path d="M59.3939924,26.292063 C59.4929084,26.0052731 59.5460176,25.8014664 59.6110765,25.4389958 L60.0386059,23.0769622 C60.0996815,22.7377269 60.1229168,22.5266176 60.1295555,22.2252227 L60.7821353,22.2252227 L60.6891941,22.7377269 C60.6732613,22.8280126 60.6619756,22.8890882 60.6068748,23.063021 C61.0888412,22.4436345 61.652463,22.149542 62.3601437,22.149542 C62.9257571,22.149542 63.331379,22.3460462 63.5152697,22.7151555 C63.6254714,22.9342311 63.6453874,23.2130546 63.5790008,23.5834916 L63.2417571,25.4469622 C63.1720513,25.8320042 63.1494798,26.0431134 63.143505,26.292063 L62.4358244,26.292063 C62.5287655,25.9979706 62.585858,25.7715924 62.644942,25.4389958 L62.9635975,23.6810798 C63.0864126,23.0019454 62.8135639,22.6394748 62.1928496,22.6394748 C61.7527067,22.6394748 61.3650092,22.8280126 60.9607151,23.2356261 C60.7097739,23.492542 60.5816479,23.6810798 60.4641437,23.9831387 L60.2005891,25.4389958 C60.1401773,25.7715924 60.1149504,25.9979706 60.1010092,26.292063 L59.3939924,26.292063 Z" id="Fill-38" fill="#FFFFFF"></path>
                <path d="M67.5509748,23.8693521 C67.5801849,23.4471336 67.5111429,23.1756126 67.3020252,22.9419319 C67.0988824,22.7155538 66.8134202,22.6020328 66.4356807,22.6020328 C65.9570336,22.6020328 65.5135714,22.8357134 65.2015546,23.2585958 C65.0568319,23.4471336 64.992437,23.5832261 64.8941849,23.8693521 L67.5509748,23.8693521 Z M64.7846471,24.3453437 C64.7162689,24.8512092 64.7448151,25.1293689 64.9081261,25.4015538 C65.0993193,25.7341504 65.4511681,25.9147218 65.9231765,25.9147218 C66.5598235,25.9147218 67.0550672,25.6133269 67.3796975,25.0317807 L67.8922017,25.2428899 C67.6850756,25.5602176 67.5582773,25.6963101 67.3458403,25.869579 C66.9136639,26.2167807 66.4024874,26.398016 65.8282437,26.398016 C64.5941176,26.398016 63.9661008,25.568184 64.202437,24.2623605 C64.4361176,22.9718059 65.3588908,22.126705 66.537916,22.126705 C67.5516387,22.126705 68.1696975,22.7527303 68.1444706,23.7644613 C68.1365042,23.8474445 68.1152605,24.141537 68.0940168,24.3453437 L64.7846471,24.3453437 Z" id="Fill-40" fill="#FFFFFF"></path>
                <path d="M69.0907445,25.0848899 C69.0953916,25.3637134 69.1332319,25.4998059 69.2673328,25.6352345 C69.4319714,25.8091672 69.7300471,25.9001168 70.130358,25.9001168 C70.8148034,25.9001168 71.2974336,25.6206294 71.3777613,25.1751756 C71.4162655,24.9634025 71.3664756,24.8054025 71.2184336,24.7071504 C71.0504756,24.5942933 70.9024336,24.5484866 70.3401395,24.4349655 C69.7346941,24.3068395 69.4837529,24.2165538 69.2480807,24.0432849 C69.0057697,23.8620496 68.9068538,23.5832261 68.9666017,23.2506294 C69.0163916,22.9791084 69.1803664,22.7221924 69.4372824,22.5190496 C69.7592571,22.2627975 70.2086941,22.126705 70.7351395,22.126705 C71.2688874,22.126705 71.6638874,22.2475286 71.902879,22.4891756 C72.0774756,22.655142 72.1564756,22.8284109 72.1956437,23.1756126 L71.557005,23.2732008 C71.5463832,23.0693941 71.5238118,22.9791084 71.4321983,22.8735538 C71.2861479,22.685016 71.0206017,22.5867639 70.6667613,22.5867639 C70.0931815,22.5867639 69.6337866,22.8662513 69.5620891,23.2665622 C69.5302235,23.4391672 69.5972739,23.5905286 69.7539462,23.6814782 C69.9165933,23.7790664 70.110442,23.8394782 70.579795,23.9377303 C71.3127025,24.1036966 71.5477109,24.1939824 71.7521815,24.3679151 C71.9612992,24.5564529 72.0429546,24.8432429 71.9871899,25.1526042 C71.8510975,25.9067555 71.0976101,26.3747807 70.0208202,26.3747807 C69.305837,26.3747807 68.7926689,26.1716378 68.5709378,25.7865958 C68.4819798,25.6272681 68.4501143,25.4998059 68.4275429,25.1897807 L69.0907445,25.0848899 Z" id="Fill-42" fill="#FFFFFF"></path>
                <path d="M73.1439092,25.0848899 C73.1485563,25.3637134 73.1863966,25.4998059 73.3204975,25.6352345 C73.4851361,25.8091672 73.7832118,25.9001168 74.1835227,25.9001168 C74.8679681,25.9001168 75.3505983,25.6206294 75.4309261,25.1751756 C75.4694303,24.9634025 75.4196403,24.8054025 75.2715983,24.7071504 C75.1036403,24.5942933 74.9555983,24.5484866 74.3933042,24.4349655 C73.7878588,24.3068395 73.5369176,24.2165538 73.3012454,24.0432849 C73.0589345,23.8620496 72.9600185,23.5832261 73.0197664,23.2506294 C73.0695563,22.9791084 73.2335311,22.7221924 73.4904471,22.5190496 C73.8124218,22.2627975 74.2618588,22.126705 74.7883042,22.126705 C75.3220521,22.126705 75.7170521,22.2475286 75.9560437,22.4891756 C76.1306403,22.655142 76.2096403,22.8284109 76.2488084,23.1756126 L75.6101697,23.2732008 C75.5995479,23.0693941 75.5769765,22.9791084 75.485363,22.8735538 C75.3393126,22.685016 75.0737664,22.5867639 74.7199261,22.5867639 C74.1463462,22.5867639 73.6869513,22.8662513 73.6152538,23.2665622 C73.5833882,23.4391672 73.6504387,23.5905286 73.8071109,23.6814782 C73.969758,23.7790664 74.1636067,23.8394782 74.6329597,23.9377303 C75.3658672,24.1036966 75.6008756,24.1939824 75.8053462,24.3679151 C76.0144639,24.5564529 76.0961193,24.8432429 76.0403546,25.1526042 C75.9042622,25.9067555 75.1507748,26.3747807 74.0739849,26.3747807 C73.3590017,26.3747807 72.8458336,26.1716378 72.6241025,25.7865958 C72.5351445,25.6272681 72.503279,25.4998059 72.4807076,25.1897807 L73.1439092,25.0848899 Z" id="Fill-44" fill="#FFFFFF"></path>
                <path d="M81.9466336,23.4317319 C82.7797849,23.4317319 83.3294655,23.0022109 83.4688773,22.231463 C83.6056336,21.4779756 83.2219193,21.0776647 82.3728353,21.0776647 L80.6195664,21.0776647 L80.1933647,23.4317319 L81.9466336,23.4317319 Z M79.0010622,26.2923286 C79.0966588,26.0201437 79.1524235,25.8010681 79.2168185,25.4465639 L79.9497261,21.3949924 C80.0054908,21.0856311 80.0313815,20.8512866 80.0426672,20.5346227 C80.3228185,20.5498916 80.5412303,20.5571941 80.903037,20.5571941 L82.5069361,20.5571941 C83.7164992,20.5571941 84.2927345,21.1526815 84.1028689,22.2015891 C83.9023815,23.3109084 83.0791882,23.9522025 81.8523647,23.9522025 L80.0997597,23.9522025 L79.8302303,25.4385975 C79.7651714,25.8010681 79.7392807,26.0354126 79.7392807,26.2923286 L79.0010622,26.2923286 Z" id="Fill-46" fill="#FFFFFF"></path>
                <path d="M87.1291664,22.8054412 C86.8470235,22.7151555 86.7096034,22.692584 86.5130992,22.692584 C86.1127882,22.692584 85.753637,22.850584 85.4628639,23.1526429 C85.2325025,23.3869874 85.1282756,23.5675588 85.0359983,23.9067941 L84.7571748,25.4469622 C84.6954353,25.7861975 84.6728639,25.9979706 84.6589227,26.292063 L83.9519059,26.292063 C84.0534773,25.9448613 84.1052588,25.7483571 84.1610235,25.4389958 L84.5885529,23.0769622 C84.6562672,22.7005504 84.6775109,22.4960798 84.6874689,22.2252227 L85.3400487,22.2252227 L85.2617126,22.6547437 C85.2510908,22.7151555 85.2311748,22.8280126 85.2132504,22.8811218 C85.4044437,22.6474412 85.5445193,22.5266176 85.7290739,22.421063 C86.0623345,22.2318613 86.3424857,22.1561807 86.7202252,22.1561807 C86.9558975,22.1561807 87.0873429,22.1721134 87.4073261,22.2252227 L87.1291664,22.8054412 Z" id="Fill-48" fill="#FFFFFF"></path>
                <path d="M87.761963,24.2472908 C87.5767445,25.272963 88.0374672,25.8996521 88.956921,25.8996521 C89.8770387,25.8996521 90.5561731,25.272963 90.7400639,24.2545933 C90.9246185,23.2362235 90.4731899,22.6015681 89.569005,22.6015681 C88.6336185,22.6015681 87.9458538,23.2282571 87.761963,24.2472908 M87.1545261,24.2618958 C87.3901983,22.9567361 88.3581143,22.1269042 89.6393748,22.1269042 C90.9206353,22.1269042 91.5798538,22.9567361 91.3448454,24.2545933 C91.1118286,25.544484 90.1412571,26.3902487 88.8759294,26.3902487 C87.5867025,26.3902487 86.9181899,25.5677193 87.1545261,24.2618958" id="Fill-50" fill="#FFFFFF"></path>
                <path d="M92.0809395,23.7791992 C92.2960319,23.809737 92.4600067,23.8170395 92.7899479,23.8170395 L93.7259983,23.8170395 C94.063242,23.8170395 94.2298723,23.809737 94.4549227,23.7791992 L94.3407378,24.4131908 C94.1263092,24.3833168 93.9543681,24.3753504 93.6244269,24.3753504 L92.6890403,24.3753504 C92.3743681,24.3753504 92.1924689,24.3833168 91.9667546,24.4131908 L92.0809395,23.7791992 Z" id="Fill-52" fill="#FFFFFF"></path>
                <path d="M98.3702025,23.4693067 C98.2480513,22.8811218 97.9214294,22.6016345 97.3398832,22.6016345 C96.4755303,22.6016345 95.8076815,23.250895 95.6244546,24.2619622 C95.4445471,25.2584244 95.8953118,25.8917521 96.7762613,25.8917521 C97.2237067,25.8917521 97.6246815,25.7184832 97.8862445,25.4091218 C97.9844966,25.2962647 98.0402613,25.2053151 98.1278916,25.0247437 L98.6901857,25.1747773 C98.530858,25.4469622 98.4266311,25.5896933 98.2633202,25.7556597 C97.8417655,26.1712395 97.2993874,26.3896513 96.6627403,26.3896513 C95.4279504,26.3896513 94.783337,25.5677857 95.0163538,24.2772311 C95.2533538,22.9720714 96.1933874,22.1190042 97.3956479,22.1190042 C98.0488916,22.1190042 98.530858,22.3606513 98.7871101,22.8134076 C98.871421,22.9568025 98.9198832,23.0769622 98.974984,23.2960378 L98.3702025,23.4693067 Z" id="Fill-54" fill="#FFFFFF"></path>
                <path d="M102.669064,23.8693521 C102.698274,23.4471336 102.629232,23.1756126 102.420114,22.9419319 C102.216971,22.7155538 101.932173,22.6020328 101.554434,22.6020328 C101.075123,22.6020328 100.632324,22.8357134 100.319644,23.2585958 C100.174921,23.4471336 100.110526,23.5832261 100.012274,23.8693521 L102.669064,23.8693521 Z M99.9027361,24.3453437 C99.834358,24.8512092 99.8629042,25.1293689 100.026215,25.4015538 C100.217408,25.7341504 100.569921,25.9147218 101.041929,25.9147218 C101.678576,25.9147218 102.173156,25.6133269 102.49845,25.0317807 L103.010291,25.2428899 C102.803829,25.5602176 102.67703,25.6963101 102.463929,25.869579 C102.032417,26.2167807 101.520576,26.398016 100.946333,26.398016 C99.7122067,26.398016 99.0841899,25.568184 99.3205261,24.2623605 C99.5542067,22.9718059 100.476316,22.126705 101.656669,22.126705 C102.670392,22.126705 103.28845,22.7527303 103.26256,23.7644613 C103.255257,23.8474445 103.23335,24.141537 103.212106,24.3453437 L99.9027361,24.3453437 Z" id="Fill-56" fill="#FFFFFF"></path>
                <path d="M104.209497,25.0848899 C104.213481,25.3637134 104.251321,25.4998059 104.384758,25.6352345 C104.550061,25.8091672 104.848136,25.9001168 105.248447,25.9001168 C105.932892,25.9001168 106.415523,25.6206294 106.49585,25.1751756 C106.534355,24.9634025 106.484565,24.8054025 106.337187,24.7071504 C106.168565,24.5942933 106.020523,24.5484866 105.458892,24.4349655 C104.853447,24.3068395 104.601842,24.2165538 104.36617,24.0432849 C104.123859,23.8620496 104.024943,23.5832261 104.085355,23.2506294 C104.134481,22.9791084 104.298455,22.7221924 104.555371,22.5190496 C104.877346,22.2627975 105.326119,22.126705 105.852565,22.126705 C106.38764,22.126705 106.781976,22.2475286 107.021632,22.4891756 C107.195565,22.655142 107.274565,22.8284109 107.313733,23.1756126 L106.675758,23.2732008 C106.665136,23.0693941 106.641901,22.9791084 106.550287,22.8735538 C106.404901,22.685016 106.138691,22.5867639 105.78485,22.5867639 C105.211271,22.5867639 104.751876,22.8662513 104.680178,23.2665622 C104.648313,23.4391672 104.715363,23.5905286 104.872035,23.6814782 C105.035346,23.7790664 105.228531,23.8394782 105.697884,23.9377303 C106.430792,24.1036966 106.6658,24.1939824 106.870271,24.3679151 C107.080052,24.5564529 107.161708,24.8432429 107.105279,25.1526042 C106.969187,25.9067555 106.215699,26.3747807 105.138909,26.3747807 C104.423926,26.3747807 103.910758,26.1716378 103.689027,25.7865958 C103.600069,25.6272681 103.567539,25.4998059 103.545632,25.1897807 L104.209497,25.0848899 Z" id="Fill-58" fill="#FFFFFF"></path>
                <path d="M108.262662,25.0848899 C108.266645,25.3637134 108.304486,25.4998059 108.437923,25.6352345 C108.603225,25.8091672 108.901301,25.9001168 109.301612,25.9001168 C109.986057,25.9001168 110.468687,25.6206294 110.549015,25.1751756 C110.587519,24.9634025 110.537729,24.8054025 110.390351,24.7071504 C110.221729,24.5942933 110.073687,24.5484866 109.512057,24.4349655 C108.906612,24.3068395 108.655007,24.2165538 108.419334,24.0432849 C108.177024,23.8620496 108.078108,23.5832261 108.138519,23.2506294 C108.187645,22.9791084 108.35162,22.7221924 108.608536,22.5190496 C108.930511,22.2627975 109.379284,22.126705 109.905729,22.126705 C110.440805,22.126705 110.835141,22.2475286 111.074797,22.4891756 C111.248729,22.655142 111.327729,22.8284109 111.366897,23.1756126 L110.728923,23.2732008 C110.718301,23.0693941 110.695066,22.9791084 110.603452,22.8735538 C110.458066,22.685016 110.191855,22.5867639 109.838015,22.5867639 C109.264435,22.5867639 108.80504,22.8662513 108.733343,23.2665622 C108.701477,23.4391672 108.768528,23.5905286 108.9252,23.6814782 C109.088511,23.7790664 109.281696,23.8394782 109.751049,23.9377303 C110.483956,24.1036966 110.718965,24.1939824 110.923435,24.3679151 C111.133217,24.5564529 111.214872,24.8432429 111.158444,25.1526042 C111.022351,25.9067555 110.268864,26.3747807 109.192074,26.3747807 C108.477091,26.3747807 107.963923,26.1716378 107.742192,25.7865958 C107.653234,25.6272681 107.620704,25.4998059 107.598797,25.1897807 L108.262662,25.0848899 Z" id="Fill-60" fill="#FFFFFF"></path>
                <path d="M114.850134,24.2472908 C114.664915,25.272963 115.124974,25.8996521 116.045092,25.8996521 C116.965209,25.8996521 117.644344,25.272963 117.828234,24.2545933 C118.012789,23.2362235 117.561361,22.6015681 116.657176,22.6015681 C115.721125,22.6015681 115.034024,23.2282571 114.850134,24.2472908 M114.242697,24.2618958 C114.478369,22.9567361 115.445621,22.1269042 116.726882,22.1269042 C118.00947,22.1269042 118.668024,22.9567361 118.433016,24.2545933 C118.199999,25.544484 117.229428,26.3902487 115.9641,26.3902487 C114.674873,26.3902487 114.006361,25.5677193 114.242697,24.2618958" id="Fill-62" fill="#FFFFFF"></path>
                <path d="M121.928334,25.8012672 C121.942939,25.718284 121.952897,25.6651748 122.011982,25.4693345 C121.50678,26.088721 120.969049,26.3675445 120.261368,26.3675445 C119.695755,26.3675445 119.290797,26.1717042 119.104914,25.8092336 C119.003343,25.590158 118.978116,25.2960655 119.043175,24.933595 L119.381082,23.0694605 C119.442158,22.7302252 119.474024,22.4666706 119.478671,22.2250235 L120.185687,22.2250235 C120.098057,22.489242 120.036318,22.7454941 119.97657,23.076763 L119.658578,24.8353429 C119.536427,25.5071748 119.807284,25.8842504 120.420032,25.8842504 C120.867477,25.8842504 121.271771,25.6963765 121.659469,25.288763 C121.911738,25.0245445 122.032561,24.8353429 122.158032,24.5339479 L122.420923,23.076763 C122.480007,22.7527966 122.512536,22.489242 122.520503,22.2250235 L123.219553,22.2250235 C123.13325,22.489242 123.073503,22.7302252 123.010435,23.076763 L122.582906,25.4387966 C122.52183,25.7793597 122.499259,25.989805 122.491956,26.2918639 L121.839376,26.2918639 L121.928334,25.8012672 Z" id="Fill-64" fill="#FFFFFF"></path>
                <path d="M125.589951,21.1004353 C125.506304,21.3420824 125.441909,21.6136034 125.382825,21.9382336 L125.331044,22.2250235 L125.708783,22.2250235 C126.07059,22.2250235 126.236556,22.217721 126.518699,22.1798807 L126.415136,22.7527966 C126.17017,22.7156202 125.974993,22.7083176 125.621153,22.7083176 L125.244077,22.7083176 L124.769413,25.3339059 C124.729582,25.5523176 124.740867,25.6651748 124.799287,25.7335529 C124.870321,25.8165361 124.995128,25.8623429 125.161094,25.8623429 C125.364901,25.8623429 125.530867,25.8165361 125.817657,25.6651748 L125.894666,26.1936118 C125.548792,26.3217378 125.29785,26.3675445 124.974548,26.3675445 C124.629338,26.3675445 124.377069,26.2845613 124.246951,26.1338639 C124.117497,25.9825025 124.094262,25.7634269 124.158657,25.4089227 L124.646598,22.7083176 L124.331926,22.7083176 C124.064388,22.7083176 123.881161,22.7222588 123.616279,22.7527966 L123.720506,22.1798807 C123.933607,22.217721 124.088951,22.2250235 124.419556,22.2250235 L124.734229,22.2250235 L124.78601,21.9382336 C124.841111,21.6361748 124.876296,21.3500487 124.882934,21.1004353 L125.589951,21.1004353 Z" id="Fill-66" fill="#FFFFFF"></path>
                <path d="M126.9767,25.0848899 C126.980683,25.3637134 127.018524,25.4998059 127.151961,25.6352345 C127.317263,25.8091672 127.615339,25.9001168 128.01565,25.9001168 C128.700095,25.9001168 129.182725,25.6206294 129.263053,25.1751756 C129.301557,24.9634025 129.251767,24.8054025 129.104389,24.7071504 C128.935767,24.5942933 128.787725,24.5484866 128.226095,24.4349655 C127.62065,24.3068395 127.369045,24.2165538 127.133372,24.0432849 C126.891061,23.8620496 126.792145,23.5832261 126.852557,23.2506294 C126.901683,22.9791084 127.065658,22.7221924 127.322574,22.5190496 C127.644549,22.2627975 128.093322,22.126705 128.619767,22.126705 C129.154843,22.126705 129.549179,22.2475286 129.788834,22.4891756 C129.962767,22.655142 130.041767,22.8284109 130.080935,23.1756126 L129.442961,23.2732008 C129.432339,23.0693941 129.409103,22.9791084 129.31749,22.8735538 C129.172103,22.685016 128.905893,22.5867639 128.552053,22.5867639 C127.978473,22.5867639 127.519078,22.8662513 127.447381,23.2665622 C127.415515,23.4391672 127.482566,23.5905286 127.639238,23.6814782 C127.802549,23.7790664 127.995734,23.8394782 128.465087,23.9377303 C129.197994,24.1036966 129.433003,24.1939824 129.637473,24.3679151 C129.847255,24.5564529 129.92891,24.8432429 129.872482,25.1526042 C129.736389,25.9067555 128.982902,26.3747807 127.906112,26.3747807 C127.191129,26.3747807 126.677961,26.1716378 126.456229,25.7865958 C126.367271,25.6272681 126.334742,25.4998059 126.312834,25.1897807 L126.9767,25.0848899 Z" id="Fill-68" fill="#FFFFFF"></path>
                <path d="M131.122607,24.2472908 C130.937388,25.272963 131.397447,25.8996521 132.317565,25.8996521 C133.237682,25.8996521 133.916817,25.272963 134.100708,24.2545933 C134.285262,23.2362235 133.833834,22.6015681 132.929649,22.6015681 C131.993598,22.6015681 131.306497,23.2282571 131.122607,24.2472908 M130.51517,24.2618958 C130.750842,22.9567361 131.718094,22.1269042 132.999355,22.1269042 C134.281943,22.1269042 134.940497,22.9567361 134.705489,24.2545933 C134.472472,25.544484 133.501901,26.3902487 132.236573,26.3902487 C130.947346,26.3902487 130.278834,25.5677193 130.51517,24.2618958" id="Fill-70" fill="#FFFFFF"></path>
                <path d="M138.200808,25.8012672 C138.215413,25.718284 138.225371,25.6651748 138.284455,25.4693345 C137.779253,26.088721 137.241522,26.3675445 136.533841,26.3675445 C135.968228,26.3675445 135.56327,26.1717042 135.377387,25.8092336 C135.275816,25.590158 135.250589,25.2960655 135.315648,24.933595 L135.653555,23.0694605 C135.714631,22.7302252 135.746497,22.4666706 135.751144,22.2250235 L136.458161,22.2250235 C136.37053,22.489242 136.308791,22.7454941 136.249043,23.076763 L135.931051,24.8353429 C135.8089,25.5071748 136.079757,25.8842504 136.692505,25.8842504 C137.13995,25.8842504 137.544245,25.6963765 137.931942,25.288763 C138.184211,25.0245445 138.305034,24.8353429 138.430505,24.5339479 L138.693396,23.076763 C138.75248,22.7527966 138.785009,22.489242 138.792976,22.2250235 L139.492026,22.2250235 C139.405724,22.489242 139.345976,22.7302252 139.282908,23.076763 L138.855379,25.4387966 C138.794303,25.7793597 138.771732,25.989805 138.764429,26.2918639 L138.11185,26.2918639 L138.200808,25.8012672 Z" id="Fill-72" fill="#FFFFFF"></path>
                <path d="M142.852381,22.8054412 C142.570238,22.7151555 142.432818,22.692584 142.236313,22.692584 C141.836003,22.692584 141.476851,22.850584 141.186078,23.1526429 C140.955717,23.3869874 140.85149,23.5675588 140.759213,23.9067941 L140.480389,25.4469622 C140.41865,25.7861975 140.396078,25.9979706 140.382137,26.292063 L139.67512,26.292063 C139.776692,25.9448613 139.828473,25.7483571 139.884238,25.4389958 L140.311767,23.0769622 C140.379482,22.7005504 140.400725,22.4960798 140.410683,22.2252227 L141.063263,22.2252227 L140.984927,22.6547437 C140.974305,22.7151555 140.954389,22.8280126 140.936465,22.8811218 C141.127658,22.6474412 141.267734,22.5266176 141.452288,22.421063 C141.785549,22.2318613 142.0657,22.1561807 142.443439,22.1561807 C142.679112,22.1561807 142.810557,22.1721134 143.13054,22.2252227 L142.852381,22.8054412 Z" id="Fill-74" fill="#FFFFFF"></path>
                <path d="M146.232054,23.4693067 C146.109903,22.8811218 145.783281,22.6016345 145.201734,22.6016345 C144.337382,22.6016345 143.669533,23.250895 143.486306,24.2619622 C143.306398,25.2584244 143.757163,25.8917521 144.638113,25.8917521 C145.085558,25.8917521 145.486533,25.7184832 145.748096,25.4091218 C145.846348,25.2962647 145.902113,25.2053151 145.989743,25.0247437 L146.552037,25.1747773 C146.392709,25.4469622 146.288482,25.5896933 146.125171,25.7556597 C145.703617,26.1712395 145.161239,26.3896513 144.524592,26.3896513 C143.289802,26.3896513 142.645188,25.5677857 142.878205,24.2772311 C143.115205,22.9720714 144.055239,22.1190042 145.257499,22.1190042 C145.910743,22.1190042 146.392709,22.3606513 146.648961,22.8134076 C146.733272,22.9568025 146.781734,23.0769622 146.836835,23.2960378 L146.232054,23.4693067 Z" id="Fill-76" fill="#FFFFFF"></path>
                <path d="M148.781829,20.5571277 L148.660341,21.2289597 L147.898224,21.2289597 L148.019711,20.5571277 L148.781829,20.5571277 Z M148.448568,22.2254218 C148.361602,22.4889765 148.308492,22.7007496 148.240114,23.0771613 L147.812585,25.439195 C147.749518,25.7863966 147.726946,25.9975059 147.713005,26.2922622 L147.005324,26.2922622 C147.10424,25.9669681 147.158013,25.7558588 147.215106,25.439195 L147.641971,23.0771613 C147.707694,22.7153546 147.732921,22.4889765 147.741551,22.2254218 L148.448568,22.2254218 Z" id="Fill-78" fill="#FFFFFF"></path>
                <path d="M148.630733,26.292063 C148.729649,26.0052731 148.782758,25.8014664 148.847817,25.4389958 L149.275346,23.0769622 C149.336422,22.7377269 149.359657,22.5266176 149.366296,22.2252227 L150.018876,22.2252227 L149.925934,22.7377269 C149.910002,22.8280126 149.898716,22.8890882 149.843615,23.063021 C150.325582,22.4436345 150.889203,22.149542 151.596884,22.149542 C152.162497,22.149542 152.568119,22.3460462 152.75201,22.7151555 C152.862212,22.9342311 152.882128,23.2130546 152.815741,23.5834916 L152.478497,25.4469622 C152.408792,25.8320042 152.38622,26.0431134 152.380245,26.292063 L151.672565,26.292063 C151.765506,25.9979706 151.822598,25.7715924 151.881682,25.4389958 L152.200338,23.6810798 C152.323153,23.0019454 152.050304,22.6394748 151.42959,22.6394748 C150.989447,22.6394748 150.60175,22.8280126 150.197455,23.2356261 C149.946514,23.492542 149.818388,23.6810798 149.700884,23.9831387 L149.437329,25.4389958 C149.376918,25.7715924 149.351691,25.9979706 149.33775,26.292063 L148.630733,26.292063 Z" id="Fill-80" fill="#FFFFFF"></path>
                <path d="M155.129379,25.8239714 C156.025597,25.8239714 156.741908,25.1680723 156.919161,24.1862151 C157.091102,23.2362235 156.63569,22.6254672 155.75474,22.6254672 C154.882421,22.6254672 154.23648,23.2428622 154.055245,24.2472908 C153.877329,25.2278202 154.288261,25.8239714 155.129379,25.8239714 Z M153.660245,26.8204336 C153.743892,26.9638286 153.781732,27.0169378 153.864051,27.0839882 C154.117648,27.3329378 154.428337,27.4391563 154.852547,27.4391563 C155.536329,27.4391563 156.068085,27.1517025 156.370808,26.6093244 C156.488976,26.3902487 156.569967,26.1180639 156.71469,25.4920387 C156.560009,25.6965092 156.455118,25.7934336 156.301766,25.9069546 C155.955892,26.1638706 155.491186,26.299963 155.011875,26.299963 C153.824883,26.299963 153.213463,25.5066437 153.441833,24.2472908 C153.674186,22.9640387 154.590984,22.1494756 155.809177,22.1494756 C156.493623,22.1494756 156.949034,22.4130303 157.175413,22.9414672 C157.190682,22.8133412 157.194001,22.7529294 157.211925,22.6553412 L157.289597,22.2251563 L157.918278,22.2251563 C157.826001,22.5185849 157.774219,22.7150891 157.710488,23.0695933 L157.221219,25.7715261 C157.087782,26.5104084 156.86074,26.9857361 156.482337,27.3409042 C156.084682,27.7106773 155.457992,27.9138202 154.743673,27.9138202 C153.965623,27.9138202 153.515522,27.7027109 153.095959,27.1596689 L153.660245,26.8204336 Z" id="Fill-82" fill="#FFFFFF"></path>
            </g>
        </g>
    </g>
</svg>