<?xml version="1.0" encoding="UTF-8"?>
<svg width="12px" height="12px" viewBox="0 0 12 12" version="1.1" xmlns="http://www.w3.org/2000/svg" xmlns:xlink="http://www.w3.org/1999/xlink">
    <!-- Generator: Sketch 52.2 (67145) - http://www.bohemiancoding.com/sketch -->
    <title>案件类型</title>
    <desc>Created with Sketch.</desc>
    <g id="前台页面内容" stroke="none" stroke-width="1" fill="none" fill-rule="evenodd">
        <g id="待办列表-审批-阅卷页面" transform="translate(-784.000000, -190.000000)">
            <g id="案件类型" transform="translate(782.000000, 188.000000)">
                <rect id="矩形" fill="#000000" opacity="0" x="0" y="0" width="16" height="16"></rect>
                <path d="M13.7090333,6.24797188 C13.7090333,7.00903988 13.1015412,7.3901255 12.5668957,7.3901255 L9.52116864,7.3901255 C8.82217056,7.3901255 8.37826353,6.86069245 8.37826353,6.15576239 L8.37901502,3.20222889 C8.37901502,2.49841808 8.82218655,2.06007527 9.52118463,2.06007527 L12.5669276,2.06007527 C13.2666452,2.06081077 13.7090652,2.49841806 13.7090652,3.20222889 L13.7090653,6.24797188 L13.7090333,6.24797188 Z M5.71397392,8.15156123 L3.42966669,8.15156123 C2.73068459,8.15156123 2.28749708,8.68099428 2.28749708,9.38478911 L2.28749708,12.3394419 C2.28749708,13.0432687 2.73068459,13.4816115 3.42966669,13.4816115 L6.47540967,13.4816115 C7.01152619,13.4816115 7.6175633,13.0429009 7.6175633,12.3394419 L7.6175633,9.29369888 C7.6175633,8.58916855 7.17437578,8.15156125 6.47540967,8.15156125 L5.71397392,8.15156123 Z M9.61297841,8.15119348 C8.90879984,8.15119348 8.37899905,8.59436502 8.37899905,9.29371486 L8.37899905,12.3394578 C8.37899905,13.1325201 8.85042342,13.4816275 9.61187516,13.4816275 L12.5668957,13.4816275 C13.2710742,13.4816275 13.7090333,13.0388237 13.7090333,12.3394578 L13.7090333,9.29369888 C13.7097848,8.59361353 13.2710742,8.15156125 12.5668957,8.15156125 L9.61297841,8.15119348 Z M3.42966669,2.06007527 C2.72548813,2.06007527 2.28749708,2.50287905 2.28749708,3.20222889 L2.28749708,6.24797188 C2.28749708,6.9502957 2.72620762,7.3901255 3.42966669,7.3901255 L6.47540967,7.3901255 C7.17958823,7.3901255 7.6175633,6.94732172 7.6175633,6.24797188 L7.6175633,3.20222889 C7.61831478,2.5039983 7.17958825,2.06007527 6.47540967,2.06007527 L3.42966669,2.06007527 Z" id="形状" fill="#2A2A2A" fill-rule="nonzero"></path>
            </g>
        </g>
    </g>
</svg>