<?xml version="1.0" encoding="UTF-8"?>
<svg width="18px" height="18px" viewBox="0 0 18 18" version="1.1" xmlns="http://www.w3.org/2000/svg" xmlns:xlink="http://www.w3.org/1999/xlink">
    <!-- Generator: Sketch 52.5 (67469) - http://www.bohemiancoding.com/sketch -->
    <title>答题系统管理</title>
    <desc>Created with Sketch.</desc>
    <g id="页面-1" stroke="none" stroke-width="1" fill="none" fill-rule="evenodd">
        <g id="题库管理--普通员工做题页面-copy-4" transform="translate(-832.000000, -187.000000)">
            <g id="答题系统管理" transform="translate(833.000000, 188.000000)">
                <rect id="矩形" fill="#000000" opacity="0" x="0" y="0" width="16" height="16"></rect>
                <g id="分组-6" transform="translate(2.000000, 4.000000)" fill="#2A2A2A">
                    <path d="M11.4288467,2.02486802 C10.1908137,1.52414787 7.82913113,0.609268251 6.7391238,0.168474721 C6.12818143,-0.132490045 5.77695685,0.0113338255 5.11218695,0.275010922 C3.98853743,0.691833807 1.99961049,1.45623105 0.717169779,1.93298054 C-0.265182498,2.29387192 -0.207317912,2.56420753 0.701021522,2.99035233 C2.06285783,3.62823783 4.67483833,4.60703918 5.25079282,4.82011158 C5.82674731,5.03318398 6.24525629,5.03451568 6.82659353,4.7774971 C7.40793077,4.52047851 8.11576268,4.1928797 10.7358173,3.13550791 L10.7358173,4.70292176 L10.2486782,5.23959787 L11.0587824,6 L11.9455909,5.23959787 L11.4840199,4.71623878 L11.4840199,2.82122612 C11.7827626,2.63611947 12.5067428,2.48563708 11.4288467,2.02486802 Z" id="路径"></path>
                    <path d="M10,7.57142857 L10,4 C8.90959228,4.44434334 7.91057711,4.92659994 7.16840654,5.21777373 C6.52865866,5.53927813 5.63521765,5.45586897 4.92928895,5.21777373 C3.78530628,4.84470731 2.8414418,4.56414923 2,4.23809524 L2,7.57142857 C2,7.57142857 3.44179634,9 6.11108923,9 C8.58971834,8.99848347 10,7.57142857 10,7.57142857 Z" id="路径"></path>
                </g>
                <circle id="椭圆形" stroke="#2A2A2A" stroke-width="0.6" cx="8" cy="8" r="8"></circle>
            </g>
        </g>
    </g>
</svg>