<?xml version="1.0" encoding="UTF-8"?>
<svg width="14px" height="14px" viewBox="0 0 14 14" version="1.1" xmlns="http://www.w3.org/2000/svg" xmlns:xlink="http://www.w3.org/1999/xlink">
    <!-- Generator: Sketch 52.5 (67469) - http://www.bohemiancoding.com/sketch -->
    <title>统计</title>
    <desc>Created with Sketch.</desc>
    <g id="页面-1" stroke="none" stroke-width="1" fill="none" fill-rule="evenodd">
        <g id="题库管理--普通员工做题页面-copy-4" transform="translate(-1447.000000, -290.000000)">
            <g id="统计" transform="translate(1445.000000, 288.000000)">
                <rect id="矩形" fill="#000000" opacity="0" x="0" y="0" width="17" height="17"></rect>
                <path d="M3.27272728,14.7272727 L16,14.7272727 L16,16 L2,16 L2,2 L3.27272728,2 L3.27272728,14.7272727 Z M4.54545454,8.68181818 L5.81818182,8.68181818 L5.81818182,13.7727273 L4.54545454,13.7727273 L4.54545454,8.68181818 Z M7.40909092,6.77272727 L8.68181818,6.77272727 L8.68181818,13.7727273 L7.40909092,13.7727273 L7.40909092,6.77272727 Z M10.2727273,8.68181818 L11.5454546,8.68181818 L11.5454546,13.7727273 L10.2727273,13.7727273 L10.2727273,8.68181818 Z M13.1363636,6.13636364 L14.4090909,6.13636364 L14.4090909,13.7727273 L13.1363636,13.7727273 L13.1363636,6.13636364 Z M5.53468182,6.34763636 L4.82863636,5.28872727 L8.04545455,3.14418181 L10.8534091,5.01604545 L13.3498636,2.79704546 L14.1952727,3.7484091 L10.9647727,6.61999999 L8.04545455,4.674 L5.53468182,6.34763636 Z" id="形状" fill="#2A2A2A" fill-rule="nonzero"></path>
            </g>
        </g>
    </g>
</svg>