<?xml version="1.0" encoding="UTF-8"?>
<svg width="14px" height="16px" viewBox="0 0 14 16" version="1.1" xmlns="http://www.w3.org/2000/svg" xmlns:xlink="http://www.w3.org/1999/xlink">
    <!-- Generator: Sketch 52.5 (67469) - http://www.bohemiancoding.com/sketch -->
    <title>分组 6</title>
    <desc>Created with Sketch.</desc>
    <g id="页面-1" stroke="none" stroke-width="1" fill="none" fill-rule="evenodd">
        <g id="题库管理--普通员工做题页面" transform="translate(-1439.000000, -244.000000)" fill="#2A2A2A">
            <g id="分组" transform="translate(1381.000000, 209.000000)">
                <g id="分组-7" transform="translate(58.000000, 32.000000)">
                    <g id="分组-6" transform="translate(0.000000, 3.000000)">
                        <path d="M13.559375,1.384375 C13.559375,1.7375 13.2734375,2.025 12.91875,2.025 L0.8828125,2.025 C0.5296875,2.025 0.2421875,1.7390625 0.2421875,1.384375 C0.2421875,1.03125 0.528125,0.74375 0.8828125,0.74375 L12.91875,0.74375 C13.271875,0.74375 13.559375,1.03125 13.559375,1.384375 Z M13.559375,14.70625 C13.559375,15.059375 13.2734375,15.346875 12.91875,15.346875 L0.8828125,15.346875 C0.5296875,15.346875 0.2421875,15.0609375 0.2421875,14.70625 C0.2421875,14.353125 0.528125,14.065625 0.8828125,14.065625 L12.91875,14.065625 C13.271875,14.065625 13.559375,14.353125 13.559375,14.70625 Z M10.259375,13.3140625 C10.259375,13.6671875 9.9734375,13.9546875 9.61875,13.9546875 L4.18125,13.9546875 C3.828125,13.9546875 3.540625,13.66875 3.540625,13.3140625 C3.540625,12.9609375 3.8265625,12.6734375 4.18125,12.6734375 L9.6203125,12.6734375 C9.9734375,12.675 10.259375,12.9609375 10.259375,13.3140625 Z M6.9,8.890625 C7.253125,8.890625 7.540625,9.1765625 7.540625,9.53125 L7.540625,10.78125 C7.540625,11.134375 7.2546875,11.421875 6.9,11.421875 C6.546875,11.421875 6.259375,11.1359375 6.259375,10.78125 L6.259375,9.5296875 C6.2609375,9.1765625 6.546875,8.890625 6.9,8.890625 Z M6.9,6.109375 C7.253125,6.109375 7.540625,6.3953125 7.540625,6.75 C7.540625,7.103125 7.2546875,7.390625 6.9,7.390625 C6.546875,7.390625 6.259375,7.1046875 6.259375,6.75 C6.2609375,6.3953125 6.546875,6.109375 6.9,6.109375 Z" id="形状" fill-rule="nonzero"></path>
                        <path d="M2.3578125,0.871875 C2.7109375,0.871875 2.9984375,1.1578125 2.9984375,1.5125 L2.9984375,3.8421875 C2.9984375,4.1953125 2.7125,4.4828125 2.3578125,4.4828125 C2.0046875,4.4828125 1.7171875,4.196875 1.7171875,3.8421875 L1.7171875,1.5125 C1.7171875,1.159375 2.0046875,0.871875 2.3578125,0.871875 Z M11.390625,0.871875 C11.74375,0.871875 12.03125,1.1578125 12.03125,1.5125 L12.03125,3.8421875 C12.03125,4.1953125 11.7453125,4.4828125 11.390625,4.4828125 C11.0375,4.4828125 10.75,4.196875 10.75,3.8421875 L10.75,1.5125 C10.75,1.159375 11.0359375,0.871875 11.390625,0.871875 Z M2.3578125,15.103125 C2.7109375,15.103125 2.9984375,14.8171875 2.9984375,14.4625 L2.9984375,12.415625 C2.9984375,12.0625 2.7125,11.775 2.3578125,11.775 C2.0046875,11.775 1.7171875,12.0609375 1.7171875,12.415625 L1.7171875,14.4625 C1.7171875,14.815625 2.0046875,15.103125 2.3578125,15.103125 Z M11.390625,15.103125 C11.74375,15.103125 12.03125,14.8171875 12.03125,14.4625 L12.03125,12.415625 C12.03125,12.0625 11.7453125,11.775 11.390625,11.775 C11.0375,11.775 10.75,12.0609375 10.75,12.415625 L10.75,14.4625 C10.75,14.815625 11.0359375,15.103125 11.390625,15.103125 Z" id="形状" fill-rule="nonzero"></path>
                        <path d="M5.9265625,7.471875 C4.24375,7.0484375 2.9984375,5.5265625 2.9984375,3.7125 L2.9984375,3.6578125 L1.71875,3.6578125 L1.71875,3.7125 C1.71875,6.2359375 3.5328125,8.3359375 5.9265625,8.78125 L5.9265625,7.471875 Z M12.0296875,3.6578125 L10.75,3.6578125 L10.75,3.7125 C10.75,5.5296875 9.4984375,7.0546875 7.8109375,7.4734375 L7.8109375,8.7828125 C10.2109375,8.3421875 12.0296875,6.2390625 12.0296875,3.7125 L12.0296875,3.6578125 Z" id="形状" fill-rule="nonzero"></path>
                        <path d="M5.928125,8.7796875 L5.928125,7.4703125 C3.5328125,7.915625 1.71875,10.015625 1.71875,12.5390625 L1.71875,12.59375 L3,12.59375 L3,12.5390625 C2.9984375,10.7265625 4.2453125,9.203125 5.928125,8.7796875 Z M7.8125,7.46875 L7.8125,8.778125 C9.5,9.196875 10.7515625,10.721875 10.7515625,12.5390625 L10.7515625,12.59375 L12.03125,12.59375 L12.03125,12.5390625 C12.03125,10.0125 10.2125,7.909375 7.8125,7.46875 Z" id="形状" fill-rule="nonzero"></path>
                        <path d="M5.48132977,8.62446709 C5.65957912,8.77679147 5.90555528,8.82244353 6.12659236,8.74422489 C6.34762945,8.66600626 6.51014274,8.4758016 6.55290908,8.24526617 C6.59567541,8.01473073 6.51219681,7.77889243 6.33392192,7.62659794 C6.15567257,7.47427356 5.90969641,7.42862151 5.68865932,7.50684014 C5.46762224,7.58505877 5.30510895,7.77526343 5.26234261,8.00579886 C5.21957628,8.2363343 5.30305488,8.47217261 5.48132977,8.62446709 Z" id="路径"></path>
                        <path d="M7.45373802,8.62656158 C7.63198737,8.77888595 7.87796353,8.82453801 8.09900061,8.74631938 C8.3200377,8.66810075 8.48255099,8.47789609 8.52531733,8.24736065 C8.56808366,8.01682522 8.48460506,7.78098691 8.30633017,7.62869242 C8.12808082,7.47636805 7.88210466,7.43071599 7.66106757,7.50893462 C7.44003049,7.58715325 7.2775172,7.77735791 7.23475086,8.00789335 C7.19198453,8.23842878 7.27546313,8.47426709 7.45373802,8.62656158 Z" id="路径"></path>
                    </g>
                </g>
            </g>
        </g>
    </g>
</svg>