<?xml version="1.0" encoding="UTF-8"?>
<svg width="252px" height="40px" viewBox="0 0 252 40" version="1.1" xmlns="http://www.w3.org/2000/svg" xmlns:xlink="http://www.w3.org/1999/xlink">
    <!-- Generator: Sketch 52.5 (67469) - http://www.bohemiancoding.com/sketch -->
    <title>分组 2</title>
    <desc>Created with Sketch.</desc>
    <defs>
        <rect id="path-1" x="0" y="0" width="252" height="40" rx="2"></rect>
    </defs>
    <g id="页面-1" stroke="none" stroke-width="1" fill="none" fill-rule="evenodd">
        <g id="组长首页待办入口-Copy-2" transform="translate(-1305.000000, -497.000000)">
            <g id="分组-2" transform="translate(1305.000000, 497.000000)">
                <g id="分组-10">
                    <mask id="mask-2" fill="white">
                        <use xlink:href="#path-1"></use>
                    </mask>
                    <use id="Mask" fill="#00CDCA" xlink:href="#path-1"></use>
                    <g mask="url(#mask-2)" fill="#FFFFFF" fill-opacity="0.1">
                        <g transform="translate(-65.000000, -111.000000)">
                            <circle id="椭圆形" cx="304" cy="173" r="57"></circle>
                            <circle id="椭圆形-copy-2" cx="57" cy="182" r="57"></circle>
                            <circle id="椭圆形-copy" cx="76.5" cy="73.5" r="73.5"></circle>
                        </g>
                    </g>
                </g>
                <text id="待办事项" font-family="PingFangSC-Semibold, PingFang SC" font-size="16" font-weight="500" fill="#FFFFFF">
                    <tspan x="101" y="25">待办事项</tspan>
                </text>
                <polyline id="路径-3-copy-2" stroke="#FFFFFF" transform="translate(174.000000, 20.000000) rotate(-90.000000) translate(-174.000000, -20.000000) " points="170 18 174 22 178 18"></polyline>
                <polyline id="路径-3-copy-3" stroke="#FFFFFF" transform="translate(178.000000, 20.000000) rotate(-90.000000) translate(-178.000000, -20.000000) " points="174 18 178 22 182 18"></polyline>
                <path d="M93.8768125,19.1306818 L89.3768125,13.2215909 C89.2699827,13.0815078 89.1083636,12.9999865 88.9375,13 L81.0625,13 C80.8916364,12.9999865 80.7300173,13.0815078 80.6231875,13.2215909 L76.1231875,19.1306818 C76.0433125,19.2352727 76,19.3658636 76,19.5 L76,24.8181818 C76,25.4711364 76.5034375,26 77.125,26 L92.875,26 C93.4965625,26 94,25.4711364 94,24.8181818 L94,19.5 C93.9999969,19.3657802 93.9565578,19.2355488 93.8768125,19.1306818 Z M92.875,20.0909091 L88.9375,20.0909091 L86.6875,22.4545455 L83.3125,22.4545455 L81.0625,20.0909091 L77.125,20.0909091 L77.125,19.7074091 L81.3330625,14.1818182 L88.6675,14.1818182 L92.8755625,19.7074091 L92.8755625,20.0909091 L92.875,20.0909091 Z M88.9375,16.5454545 L81.0625,16.5454545 C80.752,16.5454545 80.5,16.2807273 80.5,15.9545455 C80.5,15.6283636 80.752,15.3636364 81.0625,15.3636364 L88.9375,15.3636364 C89.248,15.3636364 89.5,15.6283636 89.5,15.9545455 C89.5,16.2807273 89.248,16.5454545 88.9375,16.5454545 Z M90.0625,18.9090909 L79.9375,18.9090909 C79.627,18.9090909 79.375,18.6443636 79.375,18.3181818 C79.375,17.992 79.627,17.7272727 79.9375,17.7272727 L90.0625,17.7272727 C90.373,17.7272727 90.625,17.992 90.625,18.3181818 C90.625,18.6443636 90.373,18.9090909 90.0625,18.9090909 Z" id="形状" fill="#FFFFFF" fill-rule="nonzero"></path>
            </g>
        </g>
    </g>
</svg>