<?xml version="1.0" encoding="UTF-8"?>
<svg width="14px" height="13px" viewBox="0 0 14 13" version="1.1" xmlns="http://www.w3.org/2000/svg" xmlns:xlink="http://www.w3.org/1999/xlink">
    <!-- Generator: Sketch 52.5 (67469) - http://www.bohemiancoding.com/sketch -->
    <title>资产统计</title>
    <desc>Created with Sketch.</desc>
    <g id="页面-1" stroke="none" stroke-width="1" fill="none" fill-rule="evenodd">
        <g id="题库管理--普通员工做题页面" transform="translate(-796.000000, -145.000000)">
            <g id="分组-8" transform="translate(795.000000, 141.000000)">
                <g id="资产统计" transform="translate(0.000000, 3.000000)">
                    <rect id="矩形" fill="#000000" opacity="0" x="0" y="0" width="16" height="16"></rect>
                    <path d="M14.3441428,13.4752798 L1.66533917,13.4752798 C1.30275414,13.4752798 1.00951694,13.1816868 1.00951694,12.8194684 L1.00951694,2.32706225 C1.00951694,1.96485983 1.30275414,1.67144277 1.66533917,1.67144277 C2.02718867,1.67144277 2.32116141,1.96485983 2.32116141,2.32706225 L2.32116141,10.6335904 L2.32116141,12.163673 L14.3441428,12.163673 C14.7059923,12.163673 14.999981,12.457266 14.999981,12.8194684 C14.999965,13.1816708 14.7059763,13.4752798 14.3441428,13.4752798 M12.8136297,11.5078777 L11.5019852,11.5078777 C11.1401357,11.5078777 10.846163,11.2144606 10.846163,10.8522582 L10.846163,6.26185047 C10.846163,5.89945617 11.1401357,5.60605509 11.5019852,5.60605509 L12.8136297,5.60605509 C13.1762307,5.60605509 13.469468,5.89947216 13.469468,6.26185047 L13.469468,10.8522582 C13.469452,11.2144606 13.1762307,11.5078777 12.8136297,11.5078777 M9.09753288,11.5078777 L7.78588839,11.5078777 C7.42367113,11.5078777 7.13005016,11.2144606 7.13005016,10.8522582 L7.13005016,3.63866898 C7.13005016,3.27646656 7.42367113,2.98287361 7.78588839,2.98287361 L9.09753288,2.98287361 C9.45973416,2.98287361 9.75335511,3.27646655 9.75335511,3.63866898 L9.75335511,10.8522582 C9.75335511,11.2144606 9.45975014,11.5078777 9.09753288,11.5078777 M5.38143603,11.5078777 L4.06979155,11.5078777 C3.70720652,11.5078777 3.41396931,11.2144606 3.41396931,10.8522582 L3.41396931,9.54066744 C3.41396931,9.178481 3.70720652,8.88487206 4.06979155,8.88487206 L5.38143603,8.88487206 C5.7436533,8.88487206 6.03727427,9.178465 6.03727427,9.54066744 L6.03727427,10.8522582 C6.03725827,11.2144606 5.7436533,11.5078777 5.38143603,11.5078777" id="形状" fill="#2A2A2A" fill-rule="nonzero"></path>
                </g>
            </g>
        </g>
    </g>
</svg>