<?xml version="1.0" encoding="UTF-8"?>
<svg width="12px" height="13px" viewBox="0 0 12 13" version="1.1" xmlns="http://www.w3.org/2000/svg" xmlns:xlink="http://www.w3.org/1999/xlink">
    <!-- Generator: Sketch 52.5 (67469) - http://www.bohemiancoding.com/sketch -->
    <title>标签</title>
    <desc>Created with Sketch.</desc>
    <g id="页面-1" stroke="none" stroke-width="1" fill="none" fill-rule="evenodd">
        <g id="规则详情" transform="translate(-529.000000, -259.000000)">
            <g id="标签" transform="translate(528.000000, 259.000000)">
                <rect id="矩形" fill="#000000" opacity="0" x="0" y="0" width="13" height="13"></rect>
                <path d="M12.3333333,13 L1.66666667,13 C1.29847683,13 1,12.7089851 1,12.35 L1,0.65 C1,0.291014913 1.29847683,6.59444907e-17 1.66666667,0 L5,0 L5,1.3 L2.33333333,1.3 L2.33333333,11.7 L11.6666667,11.7 L11.6666667,0 L13,0 L13,12.35 C13,12.7089851 12.7015232,13 12.3333333,13 Z M10.3333333,5.85 L8.33333333,4.55 L6.33333333,5.85 L6.33333333,0 L10.3333333,0 L10.3333333,5.85 Z" id="形状" fill="#2A2A2A" fill-rule="nonzero"></path>
            </g>
        </g>
    </g>
</svg>