<?xml version="1.0" encoding="UTF-8"?>
<svg width="16px" height="17px" viewBox="0 0 16 17" version="1.1" xmlns="http://www.w3.org/2000/svg" xmlns:xlink="http://www.w3.org/1999/xlink">
    <!-- Generator: Sketch 52.5 (67469) - http://www.bohemiancoding.com/sketch -->
    <title>路径</title>
    <desc>Created with Sketch.</desc>
    <g id="页面-1" stroke="none" stroke-width="1" fill="none" fill-rule="evenodd">
        <g id="Apple-TV-Copy-16" transform="translate(-1301.000000, -121.000000)" fill="#FF554F">
            <path d="M1306.05853,138.042907 C1306.05853,138.042907 1303.41667,135.793658 1307.01922,130.967061 C1307.01922,130.967061 1307.8198,131.710468 1307.97991,132.365898 C1307.97991,132.365898 1309.58104,131.195306 1309.26081,128.151942 C1309.26081,128.151942 1314.70467,131.651817 1312.06279,138.042907 C1312.06279,138.042907 1320.30863,135.793658 1313.58387,126.021579 C1313.58387,126.021579 1313.42375,127.39109 1312.94341,127.847601 C1312.94341,127.847601 1312.46306,123.282534 1305.81837,121 C1305.81837,121 1308.32681,125.691873 1304.37736,129.141039 C1304.37736,129.141039 1303.92371,128.101211 1303.28325,127.188211 C1303.28325,127.188211 1303.08301,129.372836 1301.65524,130.547523 C1300.77536,131.271402 1299.76076,137.129907 1306.05853,138.042907 Z" id="路径"></path>
        </g>
    </g>
</svg>