<?xml version="1.0" encoding="UTF-8"?>
<svg width="18px" height="15px" viewBox="0 0 18 15" version="1.1" xmlns="http://www.w3.org/2000/svg" xmlns:xlink="http://www.w3.org/1999/xlink">
    <!-- Generator: Sketch 52.2 (67145) - http://www.bohemiancoding.com/sketch -->
    <title>Picture Outlined - FontAwesome</title>
    <desc>Created with Sketch.</desc>
    <g id="前台页面2.0" stroke="none" stroke-width="1" fill="none" fill-rule="evenodd">
        <g id="HR最后知晓界面（请假大于24.5小时）-请假-通用--已办事项" transform="translate(-447.000000, -399.000000)" fill="#00CDCA">
            <path d="M453,403.375 C453,404.410156 452.19375,405.25 451.2,405.25 C450.20625,405.25 449.4,404.410156 449.4,403.375 C449.4,402.339844 450.20625,401.5 451.2,401.5 C452.19375,401.5 453,402.339844 453,403.375 Z M462.6,407.125 L462.6,411.5 L449.4,411.5 L449.4,409.625 L452.4,406.5 L453.9,408.0625 L458.7,403.0625 L462.6,407.125 Z M463.5,400.25 L448.5,400.25 C448.340625,400.25 448.2,400.396484 448.2,400.5625 L448.2,412.4375 C448.2,412.603516 448.340625,412.75 448.5,412.75 L463.5,412.75 C463.659375,412.75 463.8,412.603516 463.8,412.4375 L463.8,400.5625 C463.8,400.396484 463.659375,400.25 463.5,400.25 Z M465,400.5625 L465,412.4375 C465,413.296875 464.325,414 463.5,414 L448.5,414 C447.675,414 447,413.296875 447,412.4375 L447,400.5625 C447,399.703125 447.675,399 448.5,399 L463.5,399 C464.325,399 465,399.703125 465,400.5625 Z" id="Picture-Outlined---FontAwesome"></path>
        </g>
    </g>
</svg>