<?xml version="1.0" encoding="UTF-8"?>
<svg width="18px" height="18px" viewBox="0 0 18 18" version="1.1" xmlns="http://www.w3.org/2000/svg" xmlns:xlink="http://www.w3.org/1999/xlink">
    <!-- Generator: Sketch 52.5 (67469) - http://www.bohemiancoding.com/sketch -->
    <title>分组 7 copy</title>
    <desc>Created with Sketch.</desc>
    <g id="页面-1" stroke="none" stroke-width="1" fill="none" fill-rule="evenodd">
        <g id="Apple-TV-Copy-19" transform="translate(-586.000000, -749.000000)">
            <g id="分组-7-copy" transform="translate(586.000000, 749.000000)">
                <rect id="矩形" fill="#FF554F" x="0" y="0" width="18" height="18" rx="2"></rect>
                <path d="M14.502,2.632 L15.146,3.808 C13.942,4.228 12.612,4.48 11.156,4.578 L11.156,6.846 L15.482,6.846 L15.482,8.12 L14.138,8.12 L14.138,15.456 L12.836,15.456 L12.836,8.12 L11.156,8.12 L11.156,9.534 C11.086,11.998 10.54,13.958 9.518,15.428 L8.58,14.42 C9.378,13.244 9.812,11.62 9.868,9.534 L9.868,3.486 C11.59,3.458 13.13,3.164 14.502,2.632 Z M2.812,3.626 L5.304,3.626 C5.136,3.262 4.94,2.912 4.73,2.59 L6.102,2.366 C6.27,2.744 6.452,3.164 6.62,3.626 L9.21,3.626 L9.21,4.858 L2.812,4.858 L2.812,3.626 Z M2.672,6.804 L4.156,6.804 C3.974,6.314 3.764,5.852 3.526,5.432 L4.688,4.998 C4.912,5.502 5.136,6.104 5.332,6.804 L6.662,6.804 C6.886,6.216 7.082,5.614 7.25,4.984 L8.44,5.404 C8.272,5.922 8.076,6.384 7.866,6.804 L9.294,6.804 L9.294,8.022 L6.704,8.022 L6.704,9.282 L9.056,9.282 L9.056,10.486 L6.704,10.486 L6.704,14.238 C6.704,15.078 6.242,15.498 5.318,15.498 L4.59,15.498 L4.296,14.266 C4.506,14.322 4.702,14.35 4.884,14.35 C5.22,14.35 5.388,14.21 5.388,13.93 L5.388,10.486 L2.896,10.486 L2.896,9.282 L5.388,9.282 L5.388,8.022 L2.672,8.022 L2.672,6.804 Z M3.736,11.102 L4.94,11.354 C4.604,12.768 4.142,14 3.526,15.05 L2.434,14.35 C3.05,13.342 3.484,12.25 3.736,11.102 Z M8.118,11.004 C8.482,11.9 8.776,12.712 8.986,13.44 L7.866,13.86 C7.642,12.992 7.362,12.138 7.026,11.298 L8.118,11.004 Z" id="新" fill="#FFFFFF"></path>
            </g>
        </g>
    </g>
</svg>