<?xml version="1.0" encoding="UTF-8"?>
<svg width="108px" height="108px" viewBox="0 0 108 108" version="1.1" xmlns="http://www.w3.org/2000/svg" xmlns:xlink="http://www.w3.org/1999/xlink">
    <!-- Generator: Sketch 52.5 (67469) - http://www.bohemiancoding.com/sketch -->
    <title>分组</title>
    <desc>Created with Sketch.</desc>
    <g id="页面-1" stroke="none" stroke-width="1" fill="none" fill-rule="evenodd">
        <g id="Apple-TV-Copy-20" transform="translate(-743.000000, -628.000000)">
            <g id="分组" transform="translate(743.000000, 628.000000)">
                <circle id="椭圆形" fill="#F5F7FA" cx="54" cy="54" r="54"></circle>
                <path d="M77.2036295,72.2787959 L73.3996707,72.2787959 C72.473035,72.2787959 71.7218484,71.5272957 71.7218484,70.6002733 C71.7218484,69.6732508 72.473035,68.9217506 73.3996707,68.9217506 L75.5258071,68.9217506 C76.1435643,68.9217506 76.6443554,68.4207505 76.6443554,67.8027355 L76.6443554,34.4760604 C76.6443554,33.8580454 76.1435643,33.3570453 75.5258071,33.3570453 L46.0511669,33.3570453 C45.4334097,33.3570453 44.9326187,33.8580454 44.9326187,34.4760604 L44.9326187,36.0426815 L65.6266555,36.0426815 C67.1710483,36.0426815 68.423026,37.2951818 68.423026,38.8402192 L68.423026,51.3373797 C68.5351035,51.9625423 68.2847324,52.5974301 67.7761813,52.9776405 C67.2676302,53.357851 66.5880773,53.4182065 66.0205262,53.1335717 C65.4529751,52.848937 65.0947182,52.2681054 65.0949536,51.6329675 L65.0673813,51.6329675 L65.0673813,40.5187418 C65.0673813,39.9007269 64.5665903,39.3997267 63.9488331,39.3997267 L34.4741929,39.3997267 C33.8564357,39.3997267 33.3556446,39.9007269 33.3556446,40.5187418 L33.3556446,75.5239396 C33.3556446,76.1419546 33.8564357,76.6429547 34.4741929,76.6429547 L53.3217303,76.6429547 C54.2483659,76.6429547 54.9995526,77.3944549 54.9995526,78.3214774 C54.9995526,79.2484998 54.2483659,80 53.3217303,80 L32.7963705,80 C31.2519777,80 30,78.7474997 30,77.2024623 L30,38.8402192 C30,37.2951818 31.2519777,36.0426815 32.7963705,36.0426815 L41.576974,36.0426815 L41.576974,32.7975377 C41.576974,31.2525003 42.8289517,30 44.3733445,30 L77.2036295,30 C78.7480223,30 80,31.2525003 80,32.7975377 L80,69.4812582 C80,71.0262956 78.7480223,72.2787959 77.2036295,72.2787959 Z M40.1216869,45.1986308 L58.3965835,45.1986308 C58.9978891,45.1951564 59.5550102,45.5140897 59.85667,46.0344816 C60.1583298,46.5548735 60.1583298,47.1970274 59.85667,47.7174193 C59.5550102,48.2378112 58.9978891,48.5567445 58.3965835,48.5532702 L40.1216869,48.5532702 C39.5203813,48.5567445 38.9632601,48.2378112 38.6616004,47.7174193 C38.3599406,47.1970274 38.3599406,46.5548735 38.6616004,46.0344816 C38.9632601,45.5140897 39.5203813,45.1951564 40.1216869,45.1986308 Z M40.1216869,61.4267554 L44.3113211,61.4267554 C45.2372862,61.4267554 45.987938,62.1776955 45.9879689,63.1040471 C45.9879689,64.0304207 45.2373081,64.7813948 44.3113211,64.7813948 L40.1216869,64.7813948 C39.1956998,64.7813948 38.445039,64.0304207 38.445039,63.1040471 C38.4450699,62.1776955 39.1957217,61.4267554 40.1216869,61.4267554 Z M38.445039,54.9888378 C38.445039,54.0624643 39.1956998,53.3114902 40.1216869,53.3114902 L48.0038165,53.3114902 C48.9298035,53.3114902 49.6804643,54.0624643 49.6804643,54.9888378 L49.6804643,54.9911878 C49.6804643,55.9175613 48.9298035,56.6685354 48.0038165,56.6685354 L40.1216869,56.6685354 C39.1956998,56.6685354 38.445039,55.9175613 38.445039,54.9911878 L38.445039,54.9888378 Z M47.561207,64.9212717 C47.561207,58.9110976 52.4314218,54.03885 58.4390883,54.03885 C64.4467549,54.03885 69.3169697,58.9110976 69.3169697,64.9212717 C69.3204625,67.2444093 68.5773583,69.5071353 67.1973209,71.3755269 L71.901655,76.0818246 C72.3255407,76.5058472 72.4911082,77.1238949 72.3359899,77.7031552 C72.1808716,78.2824155 71.7286336,78.7348848 71.1496297,78.8901225 C70.5706257,79.0453602 69.9528202,78.8797818 69.5289346,78.4557592 L64.8142539,73.7391106 C62.9608778,75.084385 60.7289014,75.8072054 58.4390883,75.8036934 C52.4314218,75.8036934 47.561207,70.9314458 47.561207,64.9212717 Z M58.4390883,72.4466482 C62.593505,72.4466482 65.9613251,69.0774224 65.9613251,64.9212717 C65.9613251,60.765121 62.593505,57.3958952 58.4390883,57.3958952 C54.2846717,57.3958952 50.9168516,60.765121 50.9168516,64.9212717 C50.9168516,69.0774224 54.2846717,72.4466482 58.4390883,72.4466482 Z" id="形状" fill="#9B9B9B" fill-rule="nonzero"></path>
            </g>
        </g>
    </g>
</svg>