<?xml version="1.0" encoding="UTF-8"?>
<svg width="13px" height="14px" viewBox="0 0 13 14" version="1.1" xmlns="http://www.w3.org/2000/svg" xmlns:xlink="http://www.w3.org/1999/xlink">
    <!-- Generator: Sketch 52.5 (67469) - http://www.bohemiancoding.com/sketch -->
    <title>形状</title>
    <desc>Created with Sketch.</desc>
    <g id="页面-1" stroke="none" stroke-width="1" fill="none" fill-rule="evenodd">
        <g id="Apple-TV-Copy-12" transform="translate(-1398.000000, -27.000000)" fill="#2A2A2A" fill-rule="nonzero">
            <path d="M1404.5,39.8176547 C1400.925,39.8176547 1398,36.9336824 1398,33.4088274 C1398,29.8839723 1400.925,27 1404.5,27 C1408.075,27 1411,29.8839723 1411,33.4088274 C1411,36.9336824 1408.075,39.8176547 1404.5,39.8176547 Z M1404.5,38.7495168 C1407.47917,38.7495168 1409.91667,36.3462066 1409.91667,33.4088274 C1409.91667,30.4714481 1407.47917,28.0681379 1404.5,28.0681379 C1401.52083,28.0681379 1399.08333,30.4714482 1399.08333,33.4088274 C1399.08333,36.3462066 1401.52083,38.7495168 1404.5,38.7495168 Z M1408.50833,39.6040272 C1408.29167,39.3903996 1408.34583,39.0165513 1408.5625,38.8563306 C1408.77917,38.6961099 1409.15833,38.6961099 1409.32083,38.9097375 L1410.35,40.1380961 C1410.56667,40.3517237 1410.5125,40.7255719 1410.29583,40.8857926 C1410.07917,41.0460133 1409.7,41.0460133 1409.5375,40.8323857 L1408.50833,39.6040272 Z" id="形状"></path>
        </g>
    </g>
</svg>