<?xml version="1.0" encoding="UTF-8"?>
<svg width="15px" height="15px" viewBox="0 0 15 15" version="1.1" xmlns="http://www.w3.org/2000/svg" xmlns:xlink="http://www.w3.org/1999/xlink">
    <!-- Generator: Sketch 52.5 (67469) - http://www.bohemiancoding.com/sketch -->
    <title>提示说明</title>
    <desc>Created with Sketch.</desc>
    <g id="页面-1" stroke="none" stroke-width="1" fill="none" fill-rule="evenodd">
        <g id="PM首页待办入口-Copy-2" transform="translate(-1739.000000, -809.000000)">
            <g id="提示说明" transform="translate(1739.000000, 809.000000)">
                <g id="分组">
                    <rect id="矩形" fill="#000000" opacity="0" x="0" y="0" width="15" height="15"></rect>
                    <path d="M7.5,15 C3.358125,15 0,11.641875 0,7.5 C0,3.358125 3.358125,0 7.5,0 C11.641875,0 15,3.358125 15,7.5 C15,11.641875 11.641875,15 7.5,15 Z M7.5,13.75 C10.951875,13.75 13.75,10.951875 13.75,7.5 C13.75,4.048125 10.951875,1.25 7.5,1.25 C4.048125,1.25 1.25,4.048125 1.25,7.5 C1.25,10.951875 4.048125,13.75 7.5,13.75 Z M6.875,6.875 C6.875,6.52982202 7.15482203,6.24999999 7.5,6.24999999 C7.84517797,6.24999999 8.125,6.52982202 8.125,6.875 L8.125,11.25 C8.125,11.595178 7.84517797,11.875 7.5,11.875 C7.15482203,11.875 6.875,11.595178 6.875,11.25 L6.875,6.875 Z M7.4375,4.875 C6.95425084,4.875 6.56249999,4.48324916 6.56249999,4 C6.56249999,3.51675084 6.95425084,3.125 7.4375,3.125 C7.92074915,3.125 8.3125,3.51675084 8.3125,4 C8.3125,4.48324916 7.92074915,4.875 7.4375,4.875 Z" id="形状" fill="#FFFFFF" fill-rule="nonzero"></path>
                </g>
            </g>
        </g>
    </g>
</svg>