<?xml version="1.0" encoding="UTF-8"?>
<svg width="16px" height="16px" viewBox="0 0 16 16" version="1.1" xmlns="http://www.w3.org/2000/svg" xmlns:xlink="http://www.w3.org/1999/xlink">
    <!-- Generator: Sketch 52.5 (67469) - http://www.bohemiancoding.com/sketch -->
    <title>形状</title>
    <desc>Created with Sketch.</desc>
    <g id="页面-1" stroke="none" stroke-width="1" fill="none" fill-rule="evenodd">
        <g id="Apple-TV-Copy-12" transform="translate(-1536.000000, -27.000000)" fill="#242424" fill-rule="nonzero">
            <path d="M1544,27 C1539.58447,27 1536,30.5844701 1536,35 C1536,39.4155299 1539.58447,43 1544,43 C1548.41553,43 1552,39.4155299 1552,35 C1551.99161,30.5844701 1548.41553,27 1544,27 Z M1548.81007,40.6663169 C1548.24764,40.406086 1546.49318,40.019937 1546.09864,39.7681007 C1545.62854,39.4742917 1545.77964,37.8625393 1545.77964,37.8625393 L1546.09864,37.5855194 C1546.09864,37.5855194 1546.18258,36.8551941 1546.31689,36.5949633 C1546.62749,35.9989507 1546.95488,35.0083945 1546.95488,35.0083945 C1546.95488,35.0083945 1547.27387,34.7733473 1547.27387,34.3704092 C1547.27387,33.9674711 1546.95488,33.7324239 1546.95488,33.7324239 C1546.95488,33.7324239 1547.0724,32.6075551 1547.0724,31.8268625 C1547.0724,30.1899265 1546.03987,29.2833158 1544.19307,29.2833158 C1542.34627,29.2833158 1540.99475,30.0472193 1540.99475,31.8268625 C1540.99475,32.6075551 1541.24659,33.7324239 1541.24659,33.7324239 C1541.24659,33.7324239 1540.9276,33.9674711 1540.9276,34.3704092 C1540.9276,34.7733473 1541.24659,35.0083945 1541.24659,35.0083945 C1541.24659,35.0083945 1541.61595,36.158447 1541.88458,36.5949633 C1542.03568,36.8467996 1542.10283,37.5855194 1542.10283,37.5855194 L1542.42183,37.8625393 C1542.42183,37.8625393 1542.57293,39.4742917 1542.10283,39.7681007 C1541.68311,40.0283316 1539.81952,40.4396642 1539.34103,40.6998951 C1537.6957,39.3483736 1536.65477,37.3001049 1536.65477,35.0083945 C1536.65477,30.9202518 1539.96222,27.6128017 1544.05037,27.6128017 C1548.13851,27.6128017 1551.44596,30.9202518 1551.44596,35.0083945 C1551.44596,37.2833158 1550.42183,39.3147954 1548.81007,40.6663169 Z" id="形状"></path>
        </g>
    </g>
</svg>